<svg xmlns="http://www.w3.org/2000/svg"
     viewBox="657 1097 240 230">
  <path fill-rule="nonzero" fill="rgb(5.488586%, 13.719177%, 19.604492%)" fill-opacity="1" d="M 824.695312 1258.222656 C 820.761719 1258.222656 817.570312 1261.410156 817.570312 1265.347656 C 817.570312 1269.28125 820.761719 1272.472656 824.695312 1272.472656 C 828.632812 1272.472656 831.820312 1269.28125 831.820312 1265.347656 C 831.820312 1261.410156 828.632812 1258.222656 824.695312 1258.222656 Z M 817.570312 1180.597656 C 817.570312 1184.53125 820.761719 1187.722656 824.695312 1187.722656 C 828.632812 1187.722656 831.820312 1184.53125 831.820312 1180.597656 C 831.820312 1176.660156 828.632812 1173.472656 824.695312 1173.472656 C 820.761719 1173.472656 817.570312 1176.660156 817.570312 1180.597656 Z M 880.640625 1279.570312 L 861.953125 1279.570312 L 861.953125 1250.738281 L 880.640625 1250.738281 Z M 845.328125 1311.179688 L 804.0625 1311.179688 L 804.0625 1127.222656 L 824.695312 1115.335938 L 845.328125 1127.222656 Z M 787.4375 1196.164062 L 767.222656 1196.164062 L 767.222656 1167.332031 L 787.4375 1167.332031 Z M 787.4375 1234.113281 L 767.222656 1234.113281 L 767.222656 1212.789062 L 787.4375 1212.789062 Z M 787.4375 1279.570312 L 767.222656 1279.570312 L 767.222656 1250.738281 L 787.4375 1250.738281 Z M 750.597656 1311.179688 L 709.335938 1311.179688 L 709.335938 1127.222656 L 729.96875 1115.335938 L 750.597656 1127.21875 Z M 692.710938 1196.164062 L 674.015625 1196.164062 L 674.015625 1167.332031 L 692.710938 1167.332031 Z M 692.710938 1279.570312 L 674.015625 1279.570312 L 674.015625 1250.738281 L 692.710938 1250.738281 Z M 861.953125 1167.332031 L 880.640625 1167.332031 L 880.640625 1196.164062 L 861.953125 1196.164062 Z M 888.953125 1212.789062 C 893.546875 1212.789062 897.265625 1209.066406 897.265625 1204.476562 L 897.265625 1159.019531 C 897.265625 1154.429688 893.546875 1150.707031 888.953125 1150.707031 L 861.953125 1150.707031 L 861.953125 1122.417969 C 861.953125 1119.445312 860.367188 1116.699219 857.789062 1115.210938 L 828.84375 1098.539062 C 826.273438 1097.058594 823.113281 1097.058594 820.546875 1098.539062 L 791.597656 1115.210938 C 789.023438 1116.699219 787.4375 1119.445312 787.4375 1122.417969 L 787.4375 1150.707031 L 767.222656 1150.707031 L 767.222656 1122.417969 C 767.222656 1119.445312 765.636719 1116.699219 763.0625 1115.210938 L 734.117188 1098.539062 C 731.550781 1097.058594 728.386719 1097.058594 725.820312 1098.539062 L 696.871094 1115.210938 C 694.296875 1116.699219 692.710938 1119.445312 692.710938 1122.417969 L 692.710938 1150.707031 L 665.703125 1150.707031 C 661.113281 1150.707031 657.390625 1154.429688 657.390625 1159.019531 L 657.390625 1204.476562 C 657.390625 1209.066406 661.113281 1212.789062 665.703125 1212.789062 L 692.710938 1212.789062 L 692.710938 1234.113281 L 665.703125 1234.113281 C 661.113281 1234.113281 657.390625 1237.835938 657.390625 1242.425781 L 657.390625 1287.882812 C 657.390625 1292.472656 661.113281 1296.195312 665.703125 1296.195312 L 692.710938 1296.195312 L 692.710938 1319.492188 C 692.710938 1324.082031 696.429688 1327.804688 701.023438 1327.804688 L 758.914062 1327.804688 C 763.503906 1327.804688 767.222656 1324.082031 767.222656 1319.492188 L 767.222656 1296.195312 L 787.4375 1296.195312 L 787.4375 1319.492188 C 787.4375 1324.082031 791.15625 1327.804688 795.75 1327.804688 L 853.640625 1327.804688 C 858.234375 1327.804688 861.953125 1324.082031 861.953125 1319.492188 L 861.953125 1296.195312 L 888.953125 1296.195312 C 893.546875 1296.195312 897.265625 1292.472656 897.265625 1287.882812 L 897.265625 1242.425781 C 897.265625 1237.835938 893.546875 1234.113281 888.953125 1234.113281 L 861.953125 1234.113281 L 861.953125 1212.789062 Z M 722.84375 1180.597656 C 722.84375 1184.53125 726.03125 1187.722656 729.96875 1187.722656 C 733.90625 1187.722656 737.09375 1184.53125 737.09375 1180.597656 C 737.09375 1176.660156 733.90625 1173.472656 729.96875 1173.472656 C 726.03125 1173.472656 722.84375 1176.660156 722.84375 1180.597656 Z M 729.96875 1258.222656 C 726.03125 1258.222656 722.84375 1261.410156 722.84375 1265.347656 C 722.84375 1269.28125 726.03125 1272.472656 729.96875 1272.472656 C 733.902344 1272.472656 737.09375 1269.28125 737.09375 1265.347656 C 737.09375 1261.410156 733.902344 1258.222656 729.96875 1258.222656 "/>
</svg>
