<svg xmlns="http://www.w3.org/2000/svg"
     viewBox="1131 672 170 230">

  <path fill-rule="nonzero" fill="rgb(5.488586%, 13.719177%, 19.604492%)" fill-opacity="1" d="M 1272.609375 877.441406 C 1259.839844 866.070312 1243.179688 848.449219 1231.050781 811.859375 C 1229.320312 806.640625 1227.449219 801.238281 1226 797.140625 L 1243.378906 788.410156 C 1246.761719 833.371094 1268.121094 859.089844 1280.070312 871.089844 Z M 1219.199219 767.859375 C 1218.109375 765.410156 1215.738281 763.769531 1213.058594 763.628906 C 1205.511719 763.230469 1199.601562 757 1199.601562 749.449219 C 1199.601562 741.609375 1205.980469 735.230469 1213.820312 735.230469 C 1221.671875 735.230469 1228.050781 741.609375 1228.050781 749.449219 C 1228.050781 750.011719 1228.011719 750.558594 1227.941406 751.109375 C 1227.808594 752.160156 1227.921875 753.238281 1228.261719 754.25 L 1234.96875 774.03125 L 1224.300781 779.390625 Z M 1211.238281 786.03125 L 1211.511719 785.699219 L 1211.570312 785.828125 C 1211.460938 785.890625 1211.351562 785.960938 1211.238281 786.03125 Z M 1207.570312 790.699219 L 1207.859375 790.328125 C 1207.800781 790.5 1207.75 790.671875 1207.710938 790.851562 C 1207.660156 790.800781 1207.609375 790.75 1207.570312 790.699219 Z M 1194.269531 824.519531 C 1200.121094 808.421875 1206.421875 802.910156 1206.460938 802.871094 C 1207.679688 801.941406 1208.589844 800.699219 1209.128906 799.308594 C 1210.578125 803.371094 1213.050781 810.378906 1215.269531 817.089844 C 1216 819.289062 1216.75 821.410156 1217.511719 823.488281 C 1207.261719 827.699219 1199.339844 826.488281 1194.269531 824.519531 Z M 1182.890625 771.878906 L 1189.351562 763.960938 C 1191.820312 768.121094 1195.328125 771.601562 1199.53125 774.039062 L 1194.390625 780.558594 Z M 1167.898438 885.390625 L 1158.210938 885 C 1156.398438 869.511719 1153.820312 828.121094 1169.910156 782.910156 L 1189.269531 797.519531 C 1181.171875 808.890625 1169.128906 834.261719 1167.898438 885.390625 Z M 1213.730469 695.539062 C 1217.710938 700.980469 1221.550781 709.53125 1221.261719 722 C 1218.890625 721.359375 1216.398438 720.980469 1213.820312 720.980469 C 1211.238281 720.980469 1208.738281 721.359375 1206.359375 722.011719 Z M 1239.679688 730.488281 C 1243.46875 726.03125 1248.421875 720.230469 1252.679688 711.441406 C 1253.851562 717.128906 1254.25 723.429688 1252.800781 729.519531 C 1251.230469 736.121094 1247.699219 741.648438 1242.121094 746.308594 C 1241.589844 741.539062 1239.878906 737.121094 1237.289062 733.359375 C 1238.011719 732.460938 1238.789062 731.53125 1239.679688 730.488281 Z M 1298.328125 865.601562 C 1297.789062 865.058594 1297.089844 864.398438 1296.25 863.609375 C 1287.101562 854.988281 1259.25 828.78125 1259.550781 775.210938 C 1259.570312 772.320312 1258.078125 769.628906 1255.621094 768.101562 C 1253.269531 766.640625 1250.351562 766.46875 1247.839844 767.601562 L 1246.5 763.660156 C 1258.480469 756.011719 1266.058594 745.789062 1269 733.25 C 1274.898438 708.148438 1259.539062 683.171875 1258.878906 682.121094 C 1257.050781 679.191406 1253.609375 677.699219 1250.238281 678.359375 C 1246.859375 679.019531 1244.230469 681.699219 1243.640625 685.089844 C 1242.011719 694.421875 1239.398438 701.238281 1236.46875 706.609375 C 1231.328125 683.058594 1214.238281 673.480469 1213.300781 672.96875 C 1211.070312 671.769531 1208.421875 671.648438 1206.089844 672.640625 C 1203.769531 673.628906 1202.019531 675.621094 1201.339844 678.058594 L 1182.789062 744.640625 C 1182.671875 745.089844 1182.609375 745.53125 1182.558594 745.980469 L 1169.460938 762.03125 C 1167.738281 761.269531 1165.78125 761.109375 1163.929688 761.609375 C 1161.449219 762.289062 1159.421875 764.070312 1158.441406 766.449219 C 1131.128906 832.25 1142.308594 892.109375 1142.800781 894.621094 C 1143.539062 898.410156 1146.78125 901.191406 1150.628906 901.339844 L 1175.78125 902.339844 C 1175.890625 902.351562 1176 902.351562 1176.109375 902.351562 C 1178.25 902.351562 1180.320312 901.519531 1181.871094 900.03125 C 1183.5 898.460938 1184.421875 896.300781 1184.421875 894.039062 C 1184.421875 871.230469 1186.628906 853.75 1189.648438 840.480469 C 1193.539062 841.808594 1198.449219 842.921875 1204.269531 842.921875 C 1210.019531 842.921875 1216.621094 841.839844 1223.851562 838.859375 C 1238.289062 869.980469 1255.859375 885.039062 1267.160156 894.710938 C 1268.710938 896.039062 1270.640625 896.710938 1272.558594 896.710938 C 1274.480469 896.710938 1276.398438 896.050781 1277.949219 894.730469 L 1297.839844 877.808594 C 1299.609375 876.300781 1300.671875 874.128906 1300.761719 871.808594 C 1300.851562 869.488281 1299.96875 867.238281 1298.328125 865.601562 Z M 1213.75 743.878906 C 1210.46875 743.878906 1207.808594 746.539062 1207.808594 749.808594 C 1207.808594 753.089844 1210.46875 755.75 1213.75 755.75 C 1217.03125 755.75 1219.691406 753.089844 1219.691406 749.808594 C 1219.691406 746.539062 1217.03125 743.878906 1213.75 743.878906 "/>

</svg>
