<?xml version="1.0" encoding="UTF-8"?>
<svg xmlns="http://www.w3.org/2000/svg" xmlns:xlink="http://www.w3.org/1999/xlink" width="2000" height="2000" viewBox="0 0 2000 2000">
<path fill-rule="nonzero" fill="rgb(5.488586%, 13.719177%, 19.604492%)" fill-opacity="1" d="M 359.472656 725.148438 C 360.257812 711.101562 364.128906 700.730469 371.011719 694.308594 C 376.535156 689.140625 384.234375 686.449219 393.378906 686.449219 C 394.117188 686.449219 394.863281 686.46875 395.617188 686.5 C 399.050781 686.660156 402.042969 687.160156 404.128906 687.609375 C 393.210938 720.839844 368.042969 724.789062 359.472656 725.148438 Z M 393.699219 778.46875 L 390.675781 807.109375 L 285.011719 807.109375 L 281.988281 778.46875 Z M 377.84375 883.570312 L 297.84375 883.570312 L 292.53125 824.320312 L 383.15625 824.320312 Z M 321.34375 730.128906 L 321.339844 730.128906 C 309.535156 730.691406 280.683594 727.871094 263.261719 690.910156 C 266.949219 689.539062 273.695312 687.46875 281.378906 687.109375 C 297.535156 686.351562 317.835938 693.28125 324.503906 729.878906 C 323.617188 729.980469 322.554688 730.070312 321.34375 730.128906 Z M 417.011719 674.089844 L 412.378906 672.578125 C 411.660156 672.351562 405.148438 670.300781 396.394531 669.890625 C 381.65625 669.191406 368.980469 673.449219 359.660156 682.160156 C 348.855469 692.25 343.15625 707.710938 342.726562 728.140625 L 342.699219 729.960938 C 342.351562 730.351562 341.976562 730.789062 341.582031 731.300781 L 341.46875 730.570312 C 332.832031 674.191406 296.042969 669.78125 280.597656 670.511719 C 265.996094 671.191406 254.4375 676.488281 253.148438 677.101562 L 248.746094 679.199219 C 244.710938 681.121094 242.917969 685.898438 244.695312 690 L 246.636719 694.480469 C 266.621094 740.671875 301.660156 746.808594 318.847656 746.808594 C 320.023438 746.808594 321.121094 746.78125 322.117188 746.738281 C 325.464844 746.578125 328.035156 746.21875 329.609375 745.941406 C 330.867188 748.359375 332.488281 752.480469 333.191406 758.410156 C 333.214844 758.679688 333.226562 758.960938 333.277344 759.230469 C 333.363281 760.070312 333.425781 760.941406 333.46875 761.851562 L 272.75 761.851562 C 270.394531 761.851562 268.148438 762.851562 266.570312 764.601562 C 264.996094 766.351562 264.234375 768.691406 264.484375 771.039062 L 269.324219 816.878906 C 269.707031 820.5 272.386719 823.359375 275.820312 824.109375 L 281.964844 892.628906 C 282.347656 896.910156 285.9375 900.199219 290.242188 900.199219 L 385.445312 900.199219 C 389.746094 900.199219 393.339844 896.910156 393.722656 892.628906 L 399.867188 824.109375 C 403.300781 823.359375 405.976562 820.5 406.359375 816.878906 L 411.203125 771.039062 C 411.453125 768.691406 410.691406 766.351562 409.117188 764.601562 C 407.539062 762.851562 405.292969 761.851562 402.9375 761.851562 L 350.125 761.851562 C 350.066406 760.191406 349.949219 758.601562 349.785156 757.078125 C 350.238281 748.289062 353.097656 743.53125 354.566406 741.648438 L 354.757812 741.671875 C 354.757812 741.671875 355.230469 741.71875 356.117188 741.761719 L 356.125 741.761719 C 356.484375 741.78125 357.039062 741.800781 357.769531 741.800781 C 367.351562 741.800781 406.925781 738.710938 421.101562 688.960938 L 422.4375 684.269531 C 423.660156 679.96875 421.265625 675.46875 417.011719 674.089844 "/>
<path fill-rule="nonzero" fill="rgb(5.488586%, 13.719177%, 19.604492%)" fill-opacity="1" d="M 1718.710938 346.699219 C 1733.449219 377.210938 1717.378906 424.070312 1682.898438 451.160156 C 1673.941406 458.199219 1663.511719 449.699219 1659.441406 445.71875 C 1656.210938 442.550781 1651.050781 442.550781 1647.808594 445.710938 C 1642.761719 450.660156 1632.988281 457.941406 1624.359375 451.160156 C 1589.878906 424.070312 1573.808594 377.210938 1588.550781 346.699219 C 1594.890625 333.550781 1608.910156 330.019531 1622.128906 330.019531 C 1635.789062 330.019531 1648.578125 333.789062 1651.148438 334.589844 C 1652.761719 335.101562 1654.488281 335.101562 1656.109375 334.589844 C 1661.148438 333.011719 1705.800781 319.949219 1718.710938 346.699219 Z M 1691.628906 262.28125 C 1703.941406 254.53125 1723.308594 256.511719 1736.621094 259.570312 C 1713.140625 287.800781 1697.941406 291.679688 1690.71875 291.289062 C 1684.519531 290.949219 1680.5 287.429688 1678.53125 285.171875 C 1680.078125 274.351562 1684.378906 266.839844 1691.628906 262.28125 Z M 1689.371094 307.859375 C 1690.171875 307.910156 1690.960938 307.941406 1691.761719 307.941406 C 1711.398438 307.941406 1733.46875 291.839844 1757.421875 260.039062 C 1759 257.949219 1759.488281 255.230469 1758.761719 252.710938 C 1758.03125 250.199219 1756.148438 248.171875 1753.691406 247.261719 C 1751.910156 246.589844 1709.871094 231.199219 1682.820312 248.179688 C 1670.710938 255.78125 1663.648438 268.28125 1661.78125 285.300781 C 1661.230469 285.851562 1660.691406 286.390625 1660.191406 286.910156 C 1656.890625 277.230469 1651.171875 266.621094 1641.621094 255.761719 C 1638.589844 252.308594 1633.328125 251.96875 1629.890625 255 C 1626.441406 258.039062 1626.109375 263.289062 1629.140625 266.738281 C 1647.039062 287.101562 1648.511719 305.640625 1647.238281 316.359375 C 1628.210938 312.03125 1588.949219 307.609375 1573.578125 339.46875 C 1555.339844 377.25 1573.128906 432.050781 1614.089844 464.238281 C 1627.421875 474.710938 1642.339844 470.828125 1653.628906 462.539062 C 1660.078125 467.28125 1667.71875 470.578125 1675.558594 470.578125 C 1681.449219 470.578125 1687.449219 468.730469 1693.171875 464.238281 C 1734.128906 432.050781 1751.929688 377.25 1733.679688 339.46875 C 1719.308594 309.691406 1684.070312 311.609375 1663.988281 315.53125 C 1664.148438 313.320312 1664.21875 310.941406 1664.140625 308.390625 C 1665.050781 306.898438 1666.96875 304.101562 1670.429688 300.300781 C 1674.789062 303.878906 1681.03125 307.300781 1689.371094 307.859375 "/>
<path fill-rule="nonzero" fill="rgb(5.488586%, 13.719177%, 19.604492%)" fill-opacity="1" d="M 824.695312 1258.222656 C 820.761719 1258.222656 817.570312 1261.410156 817.570312 1265.347656 C 817.570312 1269.28125 820.761719 1272.472656 824.695312 1272.472656 C 828.632812 1272.472656 831.820312 1269.28125 831.820312 1265.347656 C 831.820312 1261.410156 828.632812 1258.222656 824.695312 1258.222656 Z M 817.570312 1180.597656 C 817.570312 1184.53125 820.761719 1187.722656 824.695312 1187.722656 C 828.632812 1187.722656 831.820312 1184.53125 831.820312 1180.597656 C 831.820312 1176.660156 828.632812 1173.472656 824.695312 1173.472656 C 820.761719 1173.472656 817.570312 1176.660156 817.570312 1180.597656 Z M 880.640625 1279.570312 L 861.953125 1279.570312 L 861.953125 1250.738281 L 880.640625 1250.738281 Z M 845.328125 1311.179688 L 804.0625 1311.179688 L 804.0625 1127.222656 L 824.695312 1115.335938 L 845.328125 1127.222656 Z M 787.4375 1196.164062 L 767.222656 1196.164062 L 767.222656 1167.332031 L 787.4375 1167.332031 Z M 787.4375 1234.113281 L 767.222656 1234.113281 L 767.222656 1212.789062 L 787.4375 1212.789062 Z M 787.4375 1279.570312 L 767.222656 1279.570312 L 767.222656 1250.738281 L 787.4375 1250.738281 Z M 750.597656 1311.179688 L 709.335938 1311.179688 L 709.335938 1127.222656 L 729.96875 1115.335938 L 750.597656 1127.21875 Z M 692.710938 1196.164062 L 674.015625 1196.164062 L 674.015625 1167.332031 L 692.710938 1167.332031 Z M 692.710938 1279.570312 L 674.015625 1279.570312 L 674.015625 1250.738281 L 692.710938 1250.738281 Z M 861.953125 1167.332031 L 880.640625 1167.332031 L 880.640625 1196.164062 L 861.953125 1196.164062 Z M 888.953125 1212.789062 C 893.546875 1212.789062 897.265625 1209.066406 897.265625 1204.476562 L 897.265625 1159.019531 C 897.265625 1154.429688 893.546875 1150.707031 888.953125 1150.707031 L 861.953125 1150.707031 L 861.953125 1122.417969 C 861.953125 1119.445312 860.367188 1116.699219 857.789062 1115.210938 L 828.84375 1098.539062 C 826.273438 1097.058594 823.113281 1097.058594 820.546875 1098.539062 L 791.597656 1115.210938 C 789.023438 1116.699219 787.4375 1119.445312 787.4375 1122.417969 L 787.4375 1150.707031 L 767.222656 1150.707031 L 767.222656 1122.417969 C 767.222656 1119.445312 765.636719 1116.699219 763.0625 1115.210938 L 734.117188 1098.539062 C 731.550781 1097.058594 728.386719 1097.058594 725.820312 1098.539062 L 696.871094 1115.210938 C 694.296875 1116.699219 692.710938 1119.445312 692.710938 1122.417969 L 692.710938 1150.707031 L 665.703125 1150.707031 C 661.113281 1150.707031 657.390625 1154.429688 657.390625 1159.019531 L 657.390625 1204.476562 C 657.390625 1209.066406 661.113281 1212.789062 665.703125 1212.789062 L 692.710938 1212.789062 L 692.710938 1234.113281 L 665.703125 1234.113281 C 661.113281 1234.113281 657.390625 1237.835938 657.390625 1242.425781 L 657.390625 1287.882812 C 657.390625 1292.472656 661.113281 1296.195312 665.703125 1296.195312 L 692.710938 1296.195312 L 692.710938 1319.492188 C 692.710938 1324.082031 696.429688 1327.804688 701.023438 1327.804688 L 758.914062 1327.804688 C 763.503906 1327.804688 767.222656 1324.082031 767.222656 1319.492188 L 767.222656 1296.195312 L 787.4375 1296.195312 L 787.4375 1319.492188 C 787.4375 1324.082031 791.15625 1327.804688 795.75 1327.804688 L 853.640625 1327.804688 C 858.234375 1327.804688 861.953125 1324.082031 861.953125 1319.492188 L 861.953125 1296.195312 L 888.953125 1296.195312 C 893.546875 1296.195312 897.265625 1292.472656 897.265625 1287.882812 L 897.265625 1242.425781 C 897.265625 1237.835938 893.546875 1234.113281 888.953125 1234.113281 L 861.953125 1234.113281 L 861.953125 1212.789062 Z M 722.84375 1180.597656 C 722.84375 1184.53125 726.03125 1187.722656 729.96875 1187.722656 C 733.90625 1187.722656 737.09375 1184.53125 737.09375 1180.597656 C 737.09375 1176.660156 733.90625 1173.472656 729.96875 1173.472656 C 726.03125 1173.472656 722.84375 1176.660156 722.84375 1180.597656 Z M 729.96875 1258.222656 C 726.03125 1258.222656 722.84375 1261.410156 722.84375 1265.347656 C 722.84375 1269.28125 726.03125 1272.472656 729.96875 1272.472656 C 733.902344 1272.472656 737.09375 1269.28125 737.09375 1265.347656 C 737.09375 1261.410156 733.902344 1258.222656 729.96875 1258.222656 "/>
<path fill-rule="nonzero" fill="rgb(5.488586%, 13.719177%, 19.604492%)" fill-opacity="1" d="M 1272.609375 877.441406 C 1259.839844 866.070312 1243.179688 848.449219 1231.050781 811.859375 C 1229.320312 806.640625 1227.449219 801.238281 1226 797.140625 L 1243.378906 788.410156 C 1246.761719 833.371094 1268.121094 859.089844 1280.070312 871.089844 Z M 1219.199219 767.859375 C 1218.109375 765.410156 1215.738281 763.769531 1213.058594 763.628906 C 1205.511719 763.230469 1199.601562 757 1199.601562 749.449219 C 1199.601562 741.609375 1205.980469 735.230469 1213.820312 735.230469 C 1221.671875 735.230469 1228.050781 741.609375 1228.050781 749.449219 C 1228.050781 750.011719 1228.011719 750.558594 1227.941406 751.109375 C 1227.808594 752.160156 1227.921875 753.238281 1228.261719 754.25 L 1234.96875 774.03125 L 1224.300781 779.390625 Z M 1211.238281 786.03125 L 1211.511719 785.699219 L 1211.570312 785.828125 C 1211.460938 785.890625 1211.351562 785.960938 1211.238281 786.03125 Z M 1207.570312 790.699219 L 1207.859375 790.328125 C 1207.800781 790.5 1207.75 790.671875 1207.710938 790.851562 C 1207.660156 790.800781 1207.609375 790.75 1207.570312 790.699219 Z M 1194.269531 824.519531 C 1200.121094 808.421875 1206.421875 802.910156 1206.460938 802.871094 C 1207.679688 801.941406 1208.589844 800.699219 1209.128906 799.308594 C 1210.578125 803.371094 1213.050781 810.378906 1215.269531 817.089844 C 1216 819.289062 1216.75 821.410156 1217.511719 823.488281 C 1207.261719 827.699219 1199.339844 826.488281 1194.269531 824.519531 Z M 1182.890625 771.878906 L 1189.351562 763.960938 C 1191.820312 768.121094 1195.328125 771.601562 1199.53125 774.039062 L 1194.390625 780.558594 Z M 1167.898438 885.390625 L 1158.210938 885 C 1156.398438 869.511719 1153.820312 828.121094 1169.910156 782.910156 L 1189.269531 797.519531 C 1181.171875 808.890625 1169.128906 834.261719 1167.898438 885.390625 Z M 1213.730469 695.539062 C 1217.710938 700.980469 1221.550781 709.53125 1221.261719 722 C 1218.890625 721.359375 1216.398438 720.980469 1213.820312 720.980469 C 1211.238281 720.980469 1208.738281 721.359375 1206.359375 722.011719 Z M 1239.679688 730.488281 C 1243.46875 726.03125 1248.421875 720.230469 1252.679688 711.441406 C 1253.851562 717.128906 1254.25 723.429688 1252.800781 729.519531 C 1251.230469 736.121094 1247.699219 741.648438 1242.121094 746.308594 C 1241.589844 741.539062 1239.878906 737.121094 1237.289062 733.359375 C 1238.011719 732.460938 1238.789062 731.53125 1239.679688 730.488281 Z M 1298.328125 865.601562 C 1297.789062 865.058594 1297.089844 864.398438 1296.25 863.609375 C 1287.101562 854.988281 1259.25 828.78125 1259.550781 775.210938 C 1259.570312 772.320312 1258.078125 769.628906 1255.621094 768.101562 C 1253.269531 766.640625 1250.351562 766.46875 1247.839844 767.601562 L 1246.5 763.660156 C 1258.480469 756.011719 1266.058594 745.789062 1269 733.25 C 1274.898438 708.148438 1259.539062 683.171875 1258.878906 682.121094 C 1257.050781 679.191406 1253.609375 677.699219 1250.238281 678.359375 C 1246.859375 679.019531 1244.230469 681.699219 1243.640625 685.089844 C 1242.011719 694.421875 1239.398438 701.238281 1236.46875 706.609375 C 1231.328125 683.058594 1214.238281 673.480469 1213.300781 672.96875 C 1211.070312 671.769531 1208.421875 671.648438 1206.089844 672.640625 C 1203.769531 673.628906 1202.019531 675.621094 1201.339844 678.058594 L 1182.789062 744.640625 C 1182.671875 745.089844 1182.609375 745.53125 1182.558594 745.980469 L 1169.460938 762.03125 C 1167.738281 761.269531 1165.78125 761.109375 1163.929688 761.609375 C 1161.449219 762.289062 1159.421875 764.070312 1158.441406 766.449219 C 1131.128906 832.25 1142.308594 892.109375 1142.800781 894.621094 C 1143.539062 898.410156 1146.78125 901.191406 1150.628906 901.339844 L 1175.78125 902.339844 C 1175.890625 902.351562 1176 902.351562 1176.109375 902.351562 C 1178.25 902.351562 1180.320312 901.519531 1181.871094 900.03125 C 1183.5 898.460938 1184.421875 896.300781 1184.421875 894.039062 C 1184.421875 871.230469 1186.628906 853.75 1189.648438 840.480469 C 1193.539062 841.808594 1198.449219 842.921875 1204.269531 842.921875 C 1210.019531 842.921875 1216.621094 841.839844 1223.851562 838.859375 C 1238.289062 869.980469 1255.859375 885.039062 1267.160156 894.710938 C 1268.710938 896.039062 1270.640625 896.710938 1272.558594 896.710938 C 1274.480469 896.710938 1276.398438 896.050781 1277.949219 894.730469 L 1297.839844 877.808594 C 1299.609375 876.300781 1300.671875 874.128906 1300.761719 871.808594 C 1300.851562 869.488281 1299.96875 867.238281 1298.328125 865.601562 Z M 1213.75 743.878906 C 1210.46875 743.878906 1207.808594 746.539062 1207.808594 749.808594 C 1207.808594 753.089844 1210.46875 755.75 1213.75 755.75 C 1217.03125 755.75 1219.691406 753.089844 1219.691406 749.808594 C 1219.691406 746.539062 1217.03125 743.878906 1213.75 743.878906 "/>
<path fill-rule="nonzero" fill="rgb(5.488586%, 13.719177%, 19.604492%)" fill-opacity="1" d="M 1591.539062 879.660156 C 1558.261719 861.949219 1556.871094 832.199219 1556.808594 829.46875 L 1559.089844 791.371094 L 1567.078125 791.371094 C 1570 803.621094 1579.101562 826.46875 1591.539062 826.46875 C 1603.980469 826.46875 1613.078125 803.621094 1615.988281 791.371094 L 1623.988281 791.371094 L 1626.261719 829.460938 C 1626.199219 831.921875 1624.789062 861.941406 1591.539062 879.660156 Z M 1586.859375 774.75 L 1586.859375 739.578125 C 1587.460938 739.710938 1588.058594 739.859375 1588.679688 739.96875 C 1589.171875 740.058594 1589.660156 740.101562 1590.148438 740.101562 C 1590.210938 740.101562 1590.261719 740.101562 1590.320312 740.101562 C 1590.859375 740.089844 1593.089844 739.988281 1596.210938 739.21875 L 1596.210938 774.75 Z M 1598.871094 791.371094 C 1597.101562 796.691406 1594.078125 803.519531 1591.539062 807.511719 C 1588.988281 803.511719 1585.96875 796.691406 1584.199219 791.371094 Z M 1572.621094 685.570312 C 1585.46875 681.949219 1601.878906 683.871094 1610.488281 685.339844 C 1611.011719 699.300781 1608.351562 710.011719 1602.71875 716.53125 C 1598.101562 721.878906 1592.601562 723.121094 1590.621094 723.410156 C 1572.941406 719.359375 1572.109375 695.878906 1572.621094 685.570312 Z M 1642.871094 828.761719 L 1640.121094 782.570312 C 1639.859375 778.179688 1636.21875 774.75 1631.820312 774.75 L 1612.828125 774.75 L 1612.828125 730.648438 C 1612.828125 730.441406 1612.789062 730.25 1612.769531 730.050781 C 1613.488281 729.359375 1614.199219 728.640625 1614.898438 727.851562 C 1624.800781 716.75 1628.75 699.859375 1626.640625 677.628906 C 1626.300781 674.109375 1623.769531 671.179688 1620.320312 670.339844 C 1618.890625 669.988281 1584.820312 661.890625 1561.519531 671.878906 C 1558.871094 673.019531 1556.988281 675.449219 1556.570312 678.320312 C 1554.5 692.539062 1555.808594 717.199219 1570.238281 730.871094 L 1570.238281 774.75 L 1551.261719 774.75 C 1546.859375 774.75 1543.21875 778.179688 1542.960938 782.570312 L 1540.199219 828.761719 C 1540.191406 828.898438 1540.191406 829.050781 1540.191406 829.199219 C 1540.179688 831.019531 1540.449219 873.949219 1587.96875 896.46875 C 1589.101562 897 1590.320312 897.269531 1591.539062 897.269531 C 1592.75 897.269531 1593.96875 897 1595.101562 896.46875 C 1642.621094 873.949219 1642.898438 831.019531 1642.890625 829.199219 C 1642.890625 829.050781 1642.878906 828.910156 1642.871094 828.761719 "/>
<path fill-rule="nonzero" fill="rgb(5.488586%, 13.719177%, 19.604492%)" fill-opacity="1" d="M 1739.238281 700.71875 L 1726.371094 700.71875 C 1726.109375 700.71875 1725.859375 700.78125 1725.601562 700.800781 L 1725.601562 683.519531 L 1739.238281 683.519531 Z M 1739.238281 823.089844 L 1725.601562 823.089844 L 1725.601562 717.269531 C 1725.859375 717.300781 1726.109375 717.351562 1726.371094 717.351562 L 1739.238281 717.351562 Z M 1776.921875 823.089844 L 1755.859375 823.089844 L 1755.859375 681.898438 C 1757.929688 680.390625 1759.28125 677.960938 1759.28125 675.210938 C 1759.28125 670.621094 1755.558594 666.898438 1750.96875 666.898438 L 1713.871094 666.898438 C 1709.28125 666.898438 1705.558594 670.621094 1705.558594 675.210938 C 1705.558594 677.960938 1706.910156 680.390625 1708.980469 681.898438 L 1708.980469 823.089844 L 1687.921875 823.089844 C 1683.328125 823.089844 1679.601562 826.808594 1679.601562 831.398438 L 1679.601562 887.558594 C 1679.601562 892.148438 1683.328125 895.871094 1687.921875 895.871094 C 1692.511719 895.871094 1696.230469 892.148438 1696.230469 887.558594 L 1696.230469 839.710938 L 1708.980469 839.710938 L 1708.980469 888.960938 C 1708.980469 893.550781 1712.699219 897.269531 1717.289062 897.269531 C 1721.878906 897.269531 1725.601562 893.550781 1725.601562 888.960938 L 1725.601562 839.710938 L 1739.238281 839.710938 L 1739.238281 888.960938 C 1739.238281 893.550781 1742.960938 897.269531 1747.550781 897.269531 C 1752.140625 897.269531 1755.859375 893.550781 1755.859375 888.960938 L 1755.859375 839.710938 L 1768.609375 839.710938 L 1768.609375 887.558594 C 1768.609375 892.148438 1772.328125 895.871094 1776.921875 895.871094 C 1781.511719 895.871094 1785.230469 892.148438 1785.230469 887.558594 L 1785.230469 831.398438 C 1785.230469 826.808594 1781.511719 823.089844 1776.921875 823.089844 "/>
<path fill-rule="nonzero" fill="rgb(5.488586%, 13.719177%, 19.604492%)" fill-opacity="1" d="M 1326.601562 1586.394531 C 1326.601562 1603.613281 1322.238281 1620.285156 1314.050781 1635.210938 L 1319.320312 1583.347656 L 1326.601562 1583.347656 Z M 1301.660156 1592.703125 L 1139.289062 1592.703125 L 1136.851562 1568.632812 L 1304.101562 1568.632812 Z M 1294.789062 1660.429688 C 1275.101562 1679.949219 1256.289062 1691.996094 1225.199219 1691.996094 C 1194.269531 1691.996094 1166.269531 1679.851562 1146.148438 1660.324219 L 1140.96875 1609.328125 L 1299.96875 1609.328125 Z M 1286.511719 1742.007812 L 1154.429688 1742.007812 L 1148.539062 1683.980469 C 1169.898438 1699.4375 1196.449219 1708.621094 1225.199219 1708.621094 C 1254.890625 1708.621094 1275.558594 1698.433594 1292.289062 1685.050781 Z M 1114.351562 1586.394531 L 1114.351562 1583.347656 L 1121.628906 1583.347656 L 1126.871094 1635.066406 C 1118.890625 1620.492188 1114.351562 1603.941406 1114.351562 1586.394531 Z M 1343.179688 1567.765625 C 1342.941406 1563.394531 1339.339844 1559.910156 1334.910156 1559.910156 C 1330.828125 1559.910156 1327.460938 1562.851562 1326.75 1566.722656 L 1321 1566.722656 L 1321.570312 1561.160156 C 1321.800781 1558.816406 1321.039062 1556.492188 1319.460938 1554.746094 C 1317.890625 1553.003906 1315.648438 1552.007812 1313.300781 1552.007812 L 1127.648438 1552.007812 C 1125.300781 1552.007812 1123.050781 1553.003906 1121.480469 1554.746094 C 1119.898438 1556.492188 1119.140625 1558.816406 1119.378906 1561.160156 L 1119.941406 1566.722656 L 1114.191406 1566.722656 C 1113.488281 1562.851562 1110.109375 1559.910156 1106.03125 1559.910156 C 1101.601562 1559.910156 1098.011719 1563.394531 1097.769531 1567.765625 C 1095.179688 1569.175781 1093.410156 1571.886719 1093.410156 1575.035156 C 1093.410156 1578.164062 1095.160156 1580.859375 1097.71875 1582.277344 L 1097.71875 1586.394531 C 1097.71875 1617.625 1110.019531 1646.144531 1130.191406 1667.773438 L 1138.648438 1751.160156 C 1139.078125 1755.402344 1142.648438 1758.632812 1146.921875 1758.632812 L 1294.019531 1758.632812 C 1298.289062 1758.632812 1301.859375 1755.402344 1302.289062 1751.160156 L 1310.738281 1667.855469 C 1331.699219 1645.414062 1343.21875 1616.644531 1343.21875 1586.394531 L 1343.21875 1582.277344 C 1345.78125 1580.859375 1347.53125 1578.164062 1347.53125 1575.035156 C 1347.53125 1571.886719 1345.761719 1569.175781 1343.179688 1567.765625 "/>
<path fill-rule="nonzero" fill="rgb(5.488586%, 13.719177%, 19.604492%)" fill-opacity="1" d="M 1754.621094 1587.050781 L 1616.359375 1587.050781 L 1616.359375 1570.472656 L 1754.621094 1570.472656 Z M 1754.621094 1711.796875 L 1616.359375 1711.796875 L 1616.359375 1603.675781 L 1754.621094 1603.675781 Z M 1754.621094 1742.007812 L 1616.359375 1742.007812 L 1616.359375 1728.421875 L 1754.621094 1728.421875 Z M 1599.730469 1692.648438 L 1543.339844 1653.9375 L 1548.578125 1643.96875 L 1599.730469 1662.640625 Z M 1527.589844 1648.1875 L 1499.160156 1651.527344 L 1527.550781 1604.796875 L 1535.679688 1632.769531 Z M 1771.25 1587.207031 C 1779.839844 1583.054688 1814.730469 1568.15625 1830.148438 1591.25 C 1847.488281 1617.210938 1799.878906 1666.738281 1771.25 1691.46875 Z M 1843.96875 1582.015625 C 1826.269531 1555.507812 1792.808594 1560.351562 1771.25 1568.96875 L 1771.25 1568.496094 C 1775.210938 1567.863281 1778.238281 1564.457031 1778.238281 1560.320312 C 1778.238281 1555.730469 1774.519531 1552.007812 1769.929688 1552.007812 L 1601.050781 1552.007812 C 1596.460938 1552.007812 1592.738281 1555.730469 1592.738281 1560.320312 C 1592.738281 1564.457031 1595.769531 1567.863281 1599.730469 1568.496094 L 1599.730469 1644.941406 L 1551.398438 1627.300781 L 1538.238281 1582.007812 C 1537.320312 1578.839844 1534.621094 1576.519531 1531.351562 1576.085938 C 1528.070312 1575.652344 1524.871094 1577.191406 1523.148438 1580.011719 L 1476.109375 1657.453125 C 1474.460938 1660.171875 1474.5 1663.589844 1476.21875 1666.265625 C 1477.761719 1668.660156 1480.398438 1670.085938 1483.210938 1670.085938 C 1483.53125 1670.085938 1483.859375 1670.066406 1484.191406 1670.027344 L 1529.621094 1664.683594 L 1599.730469 1712.8125 L 1599.730469 1742.140625 C 1595.769531 1742.773438 1592.738281 1746.183594 1592.738281 1750.320312 C 1592.738281 1754.910156 1596.460938 1758.632812 1601.050781 1758.632812 L 1769.929688 1758.632812 C 1774.519531 1758.632812 1778.238281 1754.910156 1778.238281 1750.320312 C 1778.238281 1746.183594 1775.210938 1742.773438 1771.25 1742.140625 L 1771.25 1713.015625 C 1785.410156 1701.960938 1875.320312 1628.945312 1843.96875 1582.015625 "/>
<path fill-rule="nonzero" fill="rgb(5.488586%, 13.719177%, 19.604492%)" fill-opacity="1" d="M 1252.730469 410.378906 C 1260.441406 395.71875 1269.828125 386.96875 1280.710938 384.339844 C 1292.679688 381.441406 1304.53125 386.390625 1311.75 390.519531 C 1288.570312 415.398438 1264.621094 413.53125 1252.730469 410.378906 Z M 1229.480469 323.261719 C 1231.78125 324.289062 1234.421875 325.308594 1237.410156 326.21875 C 1247.230469 329.210938 1258.578125 335.46875 1258.269531 343.300781 C 1258.179688 345.441406 1254.71875 350.628906 1249.320312 352.679688 C 1244.800781 354.398438 1240.660156 353.199219 1236.660156 349.03125 C 1229.761719 341.839844 1228.898438 331.230469 1229.480469 323.261719 Z M 1215.808594 314.679688 C 1212.148438 310.820312 1212.308594 304.730469 1216.171875 301.070312 C 1220.03125 297.410156 1226.121094 297.558594 1229.789062 301.421875 C 1233.449219 305.28125 1233.289062 311.378906 1229.429688 315.039062 C 1225.570312 318.699219 1219.480469 318.539062 1215.808594 314.679688 Z M 1212.679688 260.148438 C 1213.691406 258.730469 1217.679688 256.820312 1222.171875 256.820312 C 1223.191406 256.820312 1224.25 256.921875 1225.289062 257.140625 C 1230.019531 258.160156 1232.839844 261.410156 1233.929688 267.089844 C 1235.808594 276.871094 1230.78125 286.238281 1225.949219 292.621094 C 1224.578125 290.5 1222.921875 288.210938 1220.910156 285.828125 C 1214.289062 277.980469 1208.171875 266.558594 1212.679688 260.148438 Z M 1210.628906 327.878906 C 1211.050781 338.128906 1208.890625 350.921875 1201.398438 353.210938 C 1199.351562 353.828125 1193.308594 352.289062 1189.589844 347.859375 C 1186.480469 344.160156 1186.238281 339.859375 1188.851562 334.710938 C 1193.359375 325.820312 1203.089844 321.5 1210.808594 319.421875 C 1210.589844 321.929688 1210.5 324.761719 1210.628906 327.878906 Z M 1173.03125 303.199219 C 1171.730469 301.488281 1171.089844 295.289062 1173.949219 290.269531 C 1176.011719 286.648438 1179.21875 284.878906 1183.738281 284.878906 C 1184.46875 284.878906 1185.238281 284.921875 1186.039062 285.019531 C 1195.929688 286.171875 1203.351562 293.789062 1207.980469 300.308594 C 1205.550781 300.980469 1202.871094 301.878906 1199.980469 303.078125 C 1190.519531 307.03125 1177.769531 309.429688 1173.03125 303.199219 Z M 1244.289062 299.28125 C 1249.828125 290.648438 1258.960938 281.441406 1266.398438 283.859375 C 1268.441406 284.519531 1272.488281 289.269531 1272.988281 295.019531 C 1273.410156 299.839844 1271.128906 303.5 1266.03125 306.210938 C 1257.238281 310.890625 1246.800781 308.828125 1239.28125 306.101562 C 1240.898438 304.171875 1242.601562 301.910156 1244.289062 299.28125 Z M 1129.210938 402.351562 C 1136.429688 398.238281 1148.261719 393.300781 1160.140625 396.128906 C 1171.058594 398.738281 1180.480469 407.488281 1188.210938 422.199219 C 1176.328125 425.339844 1152.378906 427.210938 1129.210938 402.351562 Z M 1329.429688 382.449219 C 1328.421875 381.589844 1304.199219 361.628906 1276.941406 368.148438 C 1259.730469 372.25 1245.761719 385.679688 1235.371094 408.03125 C 1233.230469 409.980469 1231.25 411.921875 1229.421875 413.820312 L 1229.421875 364.699219 C 1234.339844 368.238281 1239.808594 370.070312 1245.421875 370.070312 C 1248.671875 370.070312 1251.949219 369.460938 1255.210938 368.230469 C 1266.039062 364.121094 1274.488281 353.691406 1274.878906 343.960938 C 1275.171875 336.558594 1272.210938 329.691406 1266.511719 323.878906 C 1268.96875 323.160156 1271.421875 322.179688 1273.839844 320.890625 C 1284.828125 315.050781 1290.550781 305.101562 1289.550781 293.578125 C 1288.550781 282.050781 1280.808594 271.070312 1271.550781 268.050781 C 1264.828125 265.859375 1257.769531 266.679688 1250.929688 270.160156 C 1250.871094 268.128906 1250.671875 266.058594 1250.261719 263.949219 C 1247.921875 251.730469 1240.089844 243.320312 1228.789062 240.890625 C 1217.480469 238.449219 1204.710938 242.609375 1199.101562 250.570312 C 1195.191406 256.109375 1193.839844 262.761719 1194.890625 269.960938 C 1192.691406 269.289062 1190.378906 268.789062 1187.960938 268.5 C 1175.601562 267.070312 1165.230469 271.988281 1159.511719 282.039062 C 1153.769531 292.101562 1153.898438 305.53125 1159.800781 313.269531 C 1163.800781 318.53125 1169.539062 321.789062 1176.46875 323.039062 C 1175.589844 324.339844 1174.769531 325.71875 1174.03125 327.179688 C 1168.398438 338.28125 1169.429688 349.71875 1176.859375 358.558594 C 1182.808594 365.640625 1192.070312 369.960938 1200.300781 369.960938 C 1202.378906 369.960938 1204.390625 369.679688 1206.269531 369.109375 C 1208.628906 368.378906 1210.800781 367.308594 1212.800781 365.96875 L 1212.800781 426.96875 C 1210.628906 424.648438 1208.21875 422.261719 1205.570312 419.851562 C 1195.179688 397.488281 1181.21875 384.070312 1164 379.960938 C 1136.738281 373.449219 1112.53125 393.410156 1111.511719 394.261719 C 1108.078125 397.128906 1107.539062 402.199219 1110.289062 405.730469 C 1131.96875 433.621094 1155.859375 440.429688 1174.03125 440.429688 C 1184.800781 440.429688 1193.550781 438.03125 1198.628906 436.21875 C 1206.519531 444.230469 1211.25 451.488281 1212.800781 454.03125 L 1212.800781 462.261719 C 1212.800781 466.851562 1216.519531 470.570312 1221.109375 470.570312 C 1225.699219 470.570312 1229.421875 466.851562 1229.421875 462.261719 L 1229.421875 440.210938 C 1231.679688 436.789062 1235.980469 430.839844 1242.308594 424.398438 C 1247.390625 426.21875 1256.140625 428.609375 1266.921875 428.609375 C 1285.078125 428.609375 1308.980469 421.800781 1330.660156 393.921875 C 1333.398438 390.390625 1332.859375 385.320312 1329.429688 382.449219 "/>
<path fill-rule="nonzero" fill="rgb(5.488586%, 13.719177%, 19.604492%)" fill-opacity="1" d="M 868.378906 1741.96875 L 681.390625 1740.804688 L 664.480469 1655.40625 L 702.554688 1703.296875 C 705.414062 1706.890625 710.640625 1707.488281 714.234375 1704.628906 C 717.828125 1701.773438 718.425781 1696.542969 715.570312 1692.949219 L 698.472656 1671.445312 L 713.664062 1610.71875 L 727.785156 1646.390625 C 729.023438 1649.519531 732.023438 1651.59375 735.386719 1651.644531 C 738.808594 1651.707031 741.816406 1649.710938 743.148438 1646.621094 L 766.601562 1592.203125 L 784.945312 1634.902344 C 785.046875 1635.140625 785.191406 1635.34375 785.3125 1635.5625 L 773.582031 1672.238281 C 772.183594 1676.609375 774.59375 1681.289062 778.96875 1682.6875 C 779.808594 1682.957031 780.664062 1683.085938 781.503906 1683.085938 C 785.019531 1683.085938 788.289062 1680.832031 789.417969 1677.300781 L 811.988281 1606.738281 L 824.527344 1652.972656 C 825.433594 1656.328125 828.339844 1658.761719 831.800781 1659.074219 C 835.25 1659.390625 838.554688 1657.515625 840.050781 1654.378906 L 854.109375 1624.917969 L 858.6875 1659.492188 L 843.082031 1679.089844 C 840.222656 1682.679688 840.816406 1687.910156 844.40625 1690.769531 C 847.996094 1693.628906 853.226562 1693.035156 856.085938 1689.449219 L 893.457031 1642.527344 Z M 914.613281 1599.804688 C 911.109375 1598.070312 906.859375 1599.011719 904.421875 1602.074219 L 873.066406 1641.441406 L 866.914062 1594.96875 C 866.429688 1591.320312 863.605469 1588.421875 859.972656 1587.847656 C 856.347656 1587.265625 852.757812 1589.15625 851.171875 1592.476562 L 834.703125 1626.980469 L 820.667969 1575.222656 C 819.703125 1571.664062 816.511719 1569.167969 812.828125 1569.085938 C 809.066406 1568.933594 805.847656 1571.355469 804.726562 1574.863281 L 793 1611.53125 L 774.253906 1567.894531 C 772.941406 1564.84375 769.941406 1562.863281 766.617188 1562.863281 L 766.613281 1562.863281 C 763.296875 1562.863281 760.296875 1564.835938 758.980469 1567.886719 L 735.839844 1621.574219 L 719.605469 1580.558594 C 718.273438 1577.195312 714.90625 1575.09375 711.328125 1575.324219 C 707.726562 1575.558594 704.6875 1578.097656 703.8125 1581.597656 L 685.4375 1655.050781 L 656.179688 1618.253906 C 653.792969 1615.246094 649.664062 1614.273438 646.179688 1615.882812 C 642.699219 1617.496094 640.773438 1621.277344 641.519531 1625.039062 L 664.683594 1742.007812 L 643.734375 1742.007812 C 639.144531 1742.007812 635.425781 1745.730469 635.425781 1750.320312 C 635.425781 1754.910156 639.144531 1758.632812 643.734375 1758.632812 L 908.550781 1758.632812 C 913.140625 1758.632812 916.859375 1754.910156 916.859375 1750.320312 C 916.859375 1745.730469 913.140625 1742.007812 908.550781 1742.007812 L 885.515625 1742.007812 L 918.984375 1609.285156 C 919.941406 1605.488281 918.121094 1601.539062 914.613281 1599.804688 "/>
<path fill-rule="nonzero" fill="rgb(5.488586%, 13.719177%, 19.604492%)" fill-opacity="1" d="M 424.324219 1592.761719 L 353 1592.761719 L 352.988281 1576.71875 L 425.695312 1576.71875 C 425.308594 1581.03125 424.832031 1586.539062 424.324219 1592.761719 Z M 424.328125 1715.855469 L 287.144531 1715.855469 L 287.144531 1710.734375 C 287.152344 1710.613281 287.15625 1710.496094 287.15625 1710.378906 C 287.410156 1696.246094 291.636719 1679.398438 310.34375 1679.398438 C 324.8125 1679.398438 335.984375 1675.214844 343.546875 1666.964844 C 353.351562 1656.269531 353.175781 1642.484375 353.03125 1639.722656 L 353.011719 1609.386719 L 423.039062 1609.386719 C 420.886719 1638.882812 419.03125 1674.71875 421.660156 1685.8125 C 424.042969 1695.855469 424.398438 1700.152344 424.316406 1708.789062 C 424.3125 1708.964844 424.316406 1709.136719 424.328125 1709.308594 Z M 424.328125 1741.980469 L 390.777344 1741.875 L 390.777344 1732.480469 L 424.328125 1732.480469 Z M 345.28125 1742.007812 L 287.144531 1742.007812 L 287.144531 1732.480469 L 367.914062 1732.480469 C 363.03125 1737.179688 355.464844 1742.007812 345.28125 1742.007812 Z M 273.789062 1689.824219 L 240.410156 1689.824219 L 240.410156 1684.996094 C 240.417969 1684.878906 240.421875 1684.761719 240.425781 1684.644531 C 240.671875 1670.886719 244.777344 1654.492188 262.945312 1654.492188 C 277.160156 1654.492188 288.140625 1650.378906 295.578125 1642.265625 C 305.3125 1631.644531 305.085938 1618.324219 304.90625 1615.429688 L 304.882812 1576.71875 L 336.363281 1576.71875 L 336.378906 1601.054688 C 336.378906 1601.058594 336.378906 1601.066406 336.378906 1601.074219 C 336.378906 1601.078125 336.378906 1601.085938 336.378906 1601.09375 L 336.40625 1639.980469 C 336.40625 1640.171875 336.417969 1640.4375 336.429688 1640.625 C 336.4375 1640.71875 336.984375 1649.632812 331.191406 1655.839844 C 326.898438 1660.441406 319.886719 1662.773438 310.34375 1662.773438 C 292.511719 1662.773438 279.523438 1672.757812 273.789062 1689.824219 Z M 270.546875 1709.546875 C 270.527344 1709.773438 270.519531 1710 270.519531 1710.230469 L 270.519531 1715.425781 L 240.410156 1715.425781 L 240.410156 1706.449219 L 270.722656 1706.449219 C 270.65625 1707.480469 270.574219 1708.488281 270.546875 1709.546875 Z M 377.617188 1544.882812 L 376.871094 1560.09375 L 304.871094 1560.09375 L 304.863281 1544.882812 Z M 437.839844 1681.984375 C 434.972656 1669.886719 439.535156 1606.382812 443.085938 1569.195312 C 443.308594 1566.863281 442.535156 1564.546875 440.960938 1562.8125 C 439.386719 1561.078125 437.152344 1560.09375 434.808594 1560.09375 L 393.515625 1560.09375 L 394.652344 1536.976562 C 394.878906 1532.390625 391.34375 1528.492188 386.757812 1528.265625 C 386.332031 1528.246094 385.921875 1528.289062 385.511719 1528.328125 C 385.265625 1528.308594 385.03125 1528.257812 384.78125 1528.257812 L 296.546875 1528.257812 C 294.339844 1528.257812 292.226562 1529.132812 290.664062 1530.691406 C 289.109375 1532.253906 288.230469 1534.367188 288.234375 1536.574219 L 288.28125 1615.726562 C 288.28125 1615.96875 288.289062 1616.207031 288.3125 1616.445312 C 288.320312 1616.527344 288.796875 1625.0625 283.320312 1631.03125 C 279.164062 1635.566406 272.308594 1637.867188 262.945312 1637.867188 C 239.460938 1637.867188 224.5 1655.453125 223.8125 1683.808594 C 223.796875 1684.035156 223.785156 1684.265625 223.785156 1684.492188 L 223.785156 1723.738281 C 223.785156 1728.328125 227.507812 1732.050781 232.097656 1732.050781 L 270.519531 1732.050781 L 270.519531 1750.320312 C 270.519531 1754.910156 274.242188 1758.632812 278.832031 1758.632812 L 345.28125 1758.632812 C 357.675781 1758.632812 367.28125 1754.0625 374.152344 1748.953125 L 374.152344 1750.160156 C 374.148438 1754.742188 377.855469 1758.460938 382.4375 1758.472656 L 432.613281 1758.632812 C 434.773438 1758.617188 436.941406 1757.765625 438.507812 1756.207031 C 440.074219 1754.648438 440.953125 1752.527344 440.953125 1750.320312 L 440.953125 1708.871094 C 440.953125 1708.746094 440.949219 1708.621094 440.945312 1708.5 C 441.015625 1699.34375 440.574219 1693.519531 437.839844 1681.984375 "/>
<path fill-rule="nonzero" fill="rgb(5.488586%, 13.719177%, 19.604492%)" fill-opacity="1" d="M 1716.671875 1228.609375 C 1715.941406 1228.730469 1715.25 1228.929688 1714.601562 1229.222656 C 1652.378906 1239.902344 1630.410156 1243.757812 1622.351562 1245.28125 C 1614.769531 1239.925781 1591.289062 1222.644531 1569.738281 1206.710938 L 1731.191406 1206.710938 C 1727.71875 1211.914062 1723.039062 1218.984375 1716.671875 1228.609375 Z M 1707.96875 1309.585938 C 1706.871094 1310.800781 1704.898438 1311.421875 1702.109375 1311.421875 C 1692.050781 1311.421875 1686.140625 1303.359375 1685.929688 1303.078125 C 1685.769531 1302.847656 1685.601562 1302.628906 1685.421875 1302.414062 L 1647.371094 1257.710938 C 1664.871094 1254.660156 1688.769531 1250.535156 1709.710938 1246.933594 L 1709.710938 1301.835938 C 1709.710938 1302.140625 1709.71875 1302.453125 1709.761719 1302.753906 C 1709.828125 1303.460938 1709.839844 1307.488281 1707.96875 1309.585938 Z M 1617.890625 1246.214844 C 1618.519531 1246.003906 1619.128906 1245.855469 1619.730469 1245.796875 C 1618.75 1245.996094 1618.230469 1246.121094 1617.890625 1246.214844 Z M 1649.921875 1117.980469 L 1666.730469 1135.476562 L 1658.03125 1135.476562 C 1653.441406 1135.476562 1649.71875 1139.199219 1649.71875 1143.789062 C 1649.71875 1148.378906 1653.441406 1152.101562 1658.03125 1152.101562 L 1682.378906 1152.101562 C 1682.480469 1152.101562 1682.570312 1152.074219 1682.679688 1152.070312 L 1692.398438 1162.195312 L 1658.03125 1162.195312 C 1653.441406 1162.195312 1649.71875 1165.917969 1649.71875 1170.507812 C 1649.71875 1175.097656 1653.441406 1178.820312 1658.03125 1178.820312 L 1708.378906 1178.820312 L 1719.199219 1190.085938 L 1580.628906 1190.085938 Z M 1577.738281 1311.421875 C 1567.441406 1311.421875 1559.058594 1303.042969 1559.058594 1292.746094 C 1559.058594 1282.441406 1567.441406 1274.0625 1577.738281 1274.0625 C 1580.058594 1274.0625 1582.28125 1274.507812 1584.328125 1275.285156 C 1580.441406 1278.933594 1576.359375 1282.730469 1572.46875 1286.3125 C 1569.101562 1289.421875 1568.878906 1294.683594 1572 1298.058594 C 1575.109375 1301.433594 1580.371094 1301.640625 1583.738281 1298.535156 C 1586.648438 1295.855469 1591.03125 1291.800781 1595.648438 1287.464844 C 1596.140625 1289.140625 1596.421875 1290.910156 1596.421875 1292.746094 C 1596.421875 1303.042969 1588.039062 1311.421875 1577.738281 1311.421875 Z M 1805.808594 1180.066406 L 1768.839844 1180.066406 C 1767.980469 1180.066406 1767.160156 1180.238281 1766.371094 1180.484375 C 1765.460938 1180.539062 1764.539062 1180.714844 1763.660156 1181.089844 L 1742.351562 1190.085938 L 1742.261719 1190.085938 L 1655.910156 1100.226562 C 1652.78125 1096.960938 1647.058594 1096.964844 1643.921875 1100.226562 L 1557.578125 1190.085938 L 1544.558594 1190.085938 C 1540.980469 1190.085938 1537.800781 1192.382812 1536.671875 1195.789062 C 1535.550781 1199.191406 1536.730469 1202.933594 1539.609375 1205.074219 C 1539.609375 1205.074219 1558.460938 1219.066406 1577.390625 1233.023438 C 1586.871094 1240.011719 1596.359375 1246.988281 1603.53125 1252.203125 C 1604.351562 1252.800781 1605.128906 1253.371094 1605.890625 1253.921875 C 1604.898438 1254.917969 1603.910156 1255.988281 1602.898438 1257.160156 C 1601.859375 1258.371094 1599.761719 1260.503906 1597.011719 1263.195312 C 1591.460938 1259.566406 1584.851562 1257.4375 1577.738281 1257.4375 C 1558.269531 1257.4375 1542.429688 1273.273438 1542.429688 1292.746094 C 1542.429688 1312.210938 1558.269531 1328.046875 1577.738281 1328.046875 C 1597.210938 1328.046875 1613.039062 1312.210938 1613.039062 1292.746094 C 1613.039062 1286.398438 1611.339844 1280.453125 1608.390625 1275.300781 C 1611.539062 1272.226562 1614.121094 1269.609375 1615.488281 1268.023438 C 1619.71875 1263.117188 1621.058594 1262.378906 1625.671875 1262.378906 C 1630.210938 1262.378906 1632.808594 1266.128906 1632.851562 1266.171875 C 1633.058594 1266.503906 1633.289062 1266.828125 1633.550781 1267.128906 L 1672.570312 1312.964844 C 1674.511719 1315.546875 1684.769531 1328.046875 1702.109375 1328.046875 C 1711.730469 1328.046875 1717.339844 1324.035156 1720.351562 1320.671875 C 1726.730469 1313.546875 1726.519531 1304.0625 1726.328125 1301.480469 L 1726.328125 1243.152344 C 1727.109375 1242.578125 1727.808594 1241.894531 1728.359375 1241.070312 C 1736.96875 1228.046875 1751.128906 1206.769531 1753.269531 1203.859375 C 1753.410156 1203.703125 1753.53125 1203.527344 1753.660156 1203.359375 L 1769.449219 1196.691406 L 1805.808594 1196.691406 C 1810.398438 1196.691406 1814.128906 1192.96875 1814.128906 1188.378906 C 1814.128906 1183.789062 1810.398438 1180.066406 1805.808594 1180.066406 "/>
<path fill-rule="nonzero" fill="rgb(5.488586%, 13.719177%, 19.604492%)" fill-opacity="1" d="M 740.207031 857.070312 L 711.382812 882.878906 L 682.5625 857.070312 L 682.5625 799.578125 L 703.070312 799.578125 L 703.070312 815.878906 C 703.070312 820.46875 706.792969 824.191406 711.382812 824.191406 C 715.976562 824.191406 719.695312 820.46875 719.695312 815.878906 L 719.695312 799.578125 L 740.207031 799.578125 Z M 716.132812 770.390625 L 716.132812 782.511719 L 706.632812 782.511719 L 706.632812 770.390625 C 708.183594 770.648438 709.761719 770.820312 711.382812 770.820312 C 713.003906 770.820312 714.585938 770.648438 716.132812 770.390625 Z M 699.734375 700.25 C 699.734375 693.828125 704.960938 688.601562 711.382812 688.601562 C 717.808594 688.601562 723.035156 693.828125 723.035156 700.25 L 723.035156 742.539062 C 723.035156 748.96875 717.808594 754.191406 711.382812 754.191406 C 704.960938 754.191406 699.734375 748.96875 699.734375 742.539062 Z M 748.519531 782.949219 L 732.757812 782.949219 L 732.757812 761 C 737.046875 756.039062 739.660156 749.589844 739.660156 742.539062 L 739.660156 700.25 C 739.660156 684.660156 726.972656 671.980469 711.382812 671.980469 C 695.792969 671.980469 683.109375 684.660156 683.109375 700.25 L 683.109375 742.539062 C 683.109375 749.589844 685.722656 756.039062 690.007812 761 L 690.007812 782.949219 L 674.25 782.949219 C 669.660156 782.949219 665.9375 786.671875 665.9375 791.261719 L 665.9375 860.78125 C 665.9375 863.148438 666.945312 865.398438 668.703125 866.980469 L 705.839844 900.230469 C 707.414062 901.640625 709.398438 902.351562 711.382812 902.351562 C 713.367188 902.351562 715.351562 901.640625 716.929688 900.230469 L 754.0625 866.980469 C 755.824219 865.398438 756.832031 863.148438 756.832031 860.78125 L 756.832031 791.261719 C 756.832031 786.671875 753.109375 782.949219 748.519531 782.949219 Z M 711.382812 706.910156 C 714.9375 706.910156 717.816406 704.019531 717.816406 700.46875 C 717.816406 696.921875 714.9375 694.039062 711.382812 694.039062 C 707.828125 694.039062 704.953125 696.921875 704.953125 700.46875 C 704.953125 704.019531 707.828125 706.910156 711.382812 706.910156 "/>
<path fill-rule="nonzero" fill="rgb(5.488586%, 13.719177%, 19.604492%)" fill-opacity="1" d="M 872.097656 840.019531 L 812.722656 840.019531 L 812.722656 822.25 C 812.722656 801.320312 835.445312 799.691406 842.410156 799.691406 C 849.375 799.691406 872.097656 801.320312 872.097656 822.25 Z M 847.160156 770.390625 L 847.160156 782.511719 L 837.660156 782.511719 L 837.660156 770.390625 C 839.207031 770.648438 840.785156 770.820312 842.40625 770.820312 C 844.03125 770.820312 845.609375 770.648438 847.160156 770.390625 Z M 830.761719 700.25 C 830.761719 693.828125 835.984375 688.601562 842.40625 688.601562 C 848.832031 688.601562 854.058594 693.828125 854.058594 700.25 L 854.058594 742.539062 C 854.058594 748.96875 848.832031 754.191406 842.40625 754.191406 C 835.984375 754.191406 830.761719 748.96875 830.761719 742.539062 Z M 863.785156 786.679688 L 863.785156 761 C 868.070312 756.039062 870.683594 749.589844 870.683594 742.539062 L 870.683594 700.25 C 870.683594 684.660156 858 671.980469 842.40625 671.980469 C 826.816406 671.980469 814.136719 684.660156 814.136719 700.25 L 814.136719 742.539062 C 814.136719 749.589844 816.746094 756.039062 821.035156 761 L 821.035156 786.679688 C 805.4375 792.539062 796.097656 805.21875 796.097656 822.25 L 796.097656 889.011719 C 796.097656 893.601562 799.816406 897.320312 804.410156 897.320312 C 809 897.320312 812.722656 893.601562 812.722656 889.011719 L 812.722656 856.648438 L 834.097656 856.648438 L 834.097656 889.289062 C 834.097656 893.878906 837.816406 897.601562 842.410156 897.601562 C 847 897.601562 850.722656 893.878906 850.722656 889.289062 L 850.722656 856.648438 L 872.097656 856.648438 L 872.097656 889.011719 C 872.097656 893.601562 875.816406 897.320312 880.410156 897.320312 C 885 897.320312 888.722656 893.601562 888.722656 889.011719 L 888.722656 822.25 C 888.722656 805.21875 879.382812 792.539062 863.785156 786.679688 Z M 842.410156 706.910156 C 845.960938 706.910156 848.84375 704.019531 848.84375 700.46875 C 848.84375 696.921875 845.960938 694.039062 842.410156 694.039062 C 838.855469 694.039062 835.976562 696.921875 835.976562 700.46875 C 835.976562 704.019531 838.855469 706.910156 842.410156 706.910156 "/>
<path fill-rule="nonzero" fill="rgb(5.488586%, 13.719177%, 19.604492%)" fill-opacity="1" d="M 713.257812 453.949219 L 777.710938 389.390625 L 812.0625 423.800781 L 785.191406 423.800781 C 780.597656 423.800781 776.878906 427.519531 776.878906 432.109375 C 776.878906 436.699219 780.597656 440.421875 785.191406 440.421875 L 828.238281 440.421875 C 828.371094 440.421875 828.492188 440.390625 828.621094 440.378906 L 842.164062 453.949219 Z M 720.242188 309.851562 C 709.125 296.761719 707.753906 280.101562 707.949219 271.171875 C 726.125 270.359375 740.507812 274.871094 750.753906 284.589844 C 764.652344 297.789062 768.488281 317.988281 769.492188 330.089844 C 747.066406 328.738281 730.523438 321.949219 720.242188 309.851562 Z M 805.019531 284.589844 C 814.492188 275.609375 827.488281 271.078125 843.761719 271.078125 C 845.101562 271.078125 846.46875 271.109375 847.855469 271.171875 C 848.082031 280.039062 846.746094 296.550781 835.628906 309.730469 C 825.355469 321.898438 808.777344 328.738281 786.277344 330.089844 C 787.285156 317.988281 791.121094 297.789062 805.019531 284.589844 Z M 870.460938 453.949219 L 865.65625 453.949219 L 786 374.171875 L 786 346.75 C 813.855469 345.320312 834.800781 336.488281 848.332031 320.449219 C 869.199219 295.71875 863.976562 263.398438 863.742188 262.039062 C 863.117188 258.378906 860.144531 255.578125 856.453125 255.171875 C 829.886719 252.25 808.699219 258.121094 793.492188 272.621094 C 786.441406 279.328125 781.441406 287.21875 777.882812 295.210938 C 774.328125 287.21875 769.332031 279.328125 762.28125 272.621094 C 747.070312 258.121094 725.886719 252.25 699.316406 255.171875 C 695.628906 255.578125 692.652344 258.378906 692.03125 262.039062 C 691.796875 263.398438 686.574219 295.71875 707.441406 320.449219 C 720.902344 336.410156 741.726562 345.199219 769.375 346.710938 L 769.375 374.210938 L 689.761719 453.949219 L 684.199219 453.949219 C 679.609375 453.949219 675.886719 457.671875 675.886719 462.261719 C 675.886719 466.851562 679.609375 470.570312 684.199219 470.570312 L 870.460938 470.570312 C 875.054688 470.570312 878.773438 466.851562 878.773438 462.261719 C 878.773438 457.671875 875.054688 453.949219 870.460938 453.949219 "/>
<path fill-rule="nonzero" fill="rgb(5.488586%, 13.719177%, 19.604492%)" fill-opacity="1" d="M 425.546875 419.78125 C 425.234375 420.070312 424.945312 420.390625 424.679688 420.730469 C 424.617188 420.808594 418.238281 428.910156 410.367188 436.941406 C 391.984375 455.710938 372.371094 463.800781 348.617188 462.328125 C 330.160156 461.210938 296.421875 440.378906 286.085938 431.738281 C 282.984375 429.148438 279.707031 427.851562 276.800781 427.230469 L 276.800781 390.121094 C 287.949219 390.769531 299.296875 391.859375 301.980469 392.839844 C 303.96875 393.570312 310.855469 397.710938 316.390625 401.03125 C 330.257812 409.351562 339.785156 414.890625 345.730469 416.148438 C 354.898438 418.070312 375.101562 416.558594 378.253906 416.308594 C 379.429688 416.300781 382.46875 416.710938 383.714844 417.898438 C 383.921875 418.101562 384.410156 418.558594 384.410156 420.28125 C 384.410156 421.628906 384.410156 424.808594 379.675781 425.011719 L 332.277344 425.011719 C 327.6875 425.011719 323.964844 428.738281 323.964844 433.328125 C 323.964844 437.921875 327.6875 441.640625 332.277344 441.640625 L 379.746094 441.640625 C 386.789062 441.578125 396.648438 437.660156 399.917969 427.609375 C 404.230469 425.359375 410.5625 420.710938 418.914062 413.621094 C 420.203125 412.511719 424.621094 409.121094 427.371094 412.191406 C 429.882812 414.988281 426.890625 418.46875 425.546875 419.78125 Z M 351.003906 361.140625 L 398.476562 408.691406 C 398.277344 408.839844 398.082031 408.980469 397.886719 409.128906 C 397.121094 407.960938 396.234375 406.871094 395.203125 405.878906 C 388.4375 399.410156 378.515625 399.660156 377.40625 399.710938 C 377.304688 399.710938 377.203125 399.71875 377.101562 399.730469 C 369.117188 400.378906 354.46875 401 349.15625 399.878906 C 345.546875 399.121094 332.949219 391.570312 325.234375 386.941406 Z M 306.082031 293.859375 C 298.070312 284.449219 296.601562 272.578125 296.554688 265.398438 C 309.960938 265.089844 320.59375 268.558594 328.203125 275.78125 C 338.316406 285.371094 341.578125 299.828125 342.597656 309.398438 C 326.015625 308.089844 313.757812 302.878906 306.082031 293.859375 Z M 374.023438 275.839844 C 381.324219 268.878906 391.414062 265.378906 404.089844 265.378906 C 404.632812 265.378906 405.179688 265.378906 405.730469 265.398438 C 405.683594 272.589844 404.214844 284.449219 396.203125 293.859375 C 388.527344 302.890625 376.253906 308.101562 359.660156 309.410156 C 360.652344 299.878906 363.886719 285.488281 374.023438 275.839844 Z M 439.753906 401.089844 C 430.933594 391.25 419.246094 393.609375 411.660156 398.359375 L 359.296875 345.910156 L 359.296875 326.101562 C 381.382812 324.679688 398.078125 317.421875 409.003906 304.480469 C 426.257812 284.03125 421.941406 257.328125 421.75 256.210938 C 421.125 252.550781 418.152344 249.75 414.464844 249.339844 C 392.609375 246.941406 375.148438 251.800781 362.558594 263.800781 C 357.648438 268.480469 353.945312 273.839844 351.144531 279.359375 C 348.34375 273.839844 344.640625 268.480469 339.730469 263.800781 C 327.140625 251.800781 309.664062 246.941406 287.824219 249.339844 C 284.136719 249.75 281.160156 252.550781 280.539062 256.210938 C 280.34375 257.328125 276.03125 284.03125 293.28125 304.480469 C 304.152344 317.359375 320.746094 324.589844 342.671875 326.070312 L 342.671875 345.949219 L 310.300781 378.371094 C 309.328125 377.898438 308.460938 377.511719 307.703125 377.230469 C 301.941406 375.121094 286.519531 373.988281 276.800781 373.46875 L 276.800781 369.429688 C 276.800781 364.828125 273.078125 361.109375 268.488281 361.109375 L 225.285156 361.109375 C 220.691406 361.109375 216.972656 364.828125 216.972656 369.429688 C 216.972656 374.019531 220.691406 377.738281 225.285156 377.738281 L 260.175781 377.738281 L 260.175781 436.390625 L 225.285156 436.390625 C 220.691406 436.390625 216.972656 440.109375 216.972656 444.699219 C 216.972656 449.289062 220.691406 453.011719 225.285156 453.011719 L 268.488281 453.011719 C 272.789062 453.011719 276.289062 449.730469 276.714844 445.539062 C 287.273438 453.839844 323.28125 477.441406 347.609375 478.929688 C 349.730469 479.058594 351.824219 479.121094 353.902344 479.121094 C 379.738281 479.121094 402.152344 469.089844 422.246094 448.578125 C 429.757812 440.910156 435.847656 433.390625 437.390625 431.460938 C 443.867188 425.039062 449.585938 412.070312 439.753906 401.089844 Z M 248.113281 395.238281 C 248.113281 390.648438 244.394531 386.921875 239.800781 386.921875 C 235.210938 386.921875 231.488281 390.648438 231.488281 395.238281 C 231.488281 399.828125 235.210938 403.550781 239.800781 403.550781 C 244.394531 403.550781 248.113281 399.828125 248.113281 395.238281 "/>
<path fill-rule="nonzero" fill="rgb(5.488586%, 13.719177%, 19.604492%)" fill-opacity="1" d="M 405.714844 1304.203125 L 405.714844 1272.792969 C 405.714844 1268.203125 401.992188 1264.480469 397.402344 1264.480469 C 392.8125 1264.480469 389.089844 1268.203125 389.089844 1272.792969 L 389.089844 1298.089844 L 381.191406 1277.351562 L 389.117188 1236.558594 L 404.253906 1239.722656 C 407.4375 1241.660156 425.117188 1254.628906 426.910156 1304.128906 C 420.5625 1304.148438 411.9375 1304.183594 405.714844 1304.203125 Z M 369.699219 1293.628906 C 366.429688 1293.628906 363.777344 1290.976562 363.777344 1287.707031 C 363.777344 1284.4375 366.429688 1281.785156 369.699219 1281.785156 C 372.972656 1281.785156 375.621094 1284.4375 375.621094 1287.707031 C 375.621094 1290.976562 372.972656 1293.628906 369.699219 1293.628906 Z M 297.0625 1293.628906 C 293.792969 1293.628906 291.140625 1290.976562 291.140625 1287.707031 C 291.140625 1284.4375 293.792969 1281.785156 297.0625 1281.785156 C 300.335938 1281.785156 302.984375 1284.4375 302.984375 1287.707031 C 302.984375 1290.976562 300.335938 1293.628906 297.0625 1293.628906 Z M 277.675781 1297.855469 L 277.675781 1272.792969 C 277.675781 1268.203125 273.953125 1264.480469 269.359375 1264.480469 C 264.769531 1264.480469 261.050781 1268.203125 261.050781 1272.792969 L 261.050781 1304.203125 C 254.824219 1304.183594 246.203125 1304.148438 239.855469 1304.128906 C 241.664062 1254.140625 259.667969 1241.410156 262.433594 1239.738281 L 276.847656 1236.726562 L 284.980469 1278.574219 C 284.984375 1278.597656 284.992188 1278.613281 284.996094 1278.632812 Z M 333.554688 1255.441406 C 349.015625 1255.441406 363.296875 1247.960938 372.433594 1235.265625 L 364.949219 1273.765625 L 300.980469 1273.765625 L 293.238281 1233.925781 C 302.296875 1247.417969 317.230469 1255.441406 333.554688 1255.441406 Z M 357.949219 1226.882812 C 351.925781 1234.421875 343.0625 1238.816406 333.554688 1238.816406 C 323.796875 1238.816406 314.785156 1234.464844 308.746094 1227.003906 L 312.457031 1220.464844 C 318.472656 1225.132812 325.5625 1227.890625 333.726562 1227.890625 C 341.664062 1227.890625 348.589844 1225.265625 354.5 1220.804688 Z M 333.726562 1211.265625 C 318.921875 1211.265625 308.699219 1191.792969 305.175781 1170.769531 C 314.242188 1172.222656 323.824219 1172.96875 333.382812 1172.96875 C 343.183594 1172.96875 353.011719 1172.1875 362.285156 1170.65625 C 358.753906 1191.691406 348.496094 1211.265625 333.726562 1211.265625 Z M 268.574219 1134.636719 C 268.574219 1131.078125 273.773438 1125.636719 285.003906 1121.046875 C 291.589844 1132.730469 310.203125 1140.726562 333.382812 1140.726562 C 356.558594 1140.726562 375.175781 1132.730469 381.757812 1121.046875 C 392.980469 1125.625 398.191406 1131.042969 398.191406 1134.636719 C 398.191406 1143.277344 372.34375 1156.34375 333.382812 1156.34375 C 294.421875 1156.34375 268.574219 1143.277344 268.574219 1134.636719 Z M 299.054688 1105.074219 C 299.148438 1104.445312 299.171875 1103.808594 299.117188 1103.164062 C 299.105469 1103.015625 299.089844 1102.867188 299.070312 1102.710938 C 299.570312 1098.277344 312.507812 1090.546875 333.382812 1090.546875 C 354.339844 1090.546875 367.296875 1098.339844 367.699219 1102.761719 L 367.640625 1103.214844 C 367.550781 1103.992188 367.574219 1104.777344 367.710938 1105.535156 L 367.710938 1111.53125 C 367.710938 1115.960938 354.675781 1124.101562 333.382812 1124.101562 C 312.085938 1124.101562 299.054688 1115.960938 299.054688 1111.53125 Z M 410.144531 1224.097656 C 409.695312 1223.921875 409.234375 1223.777344 408.761719 1223.683594 L 370.738281 1215.730469 L 366.21875 1207.769531 C 370.238281 1201.507812 373.398438 1194.199219 375.695312 1186.433594 C 383.664062 1180.03125 386.632812 1170.753906 387.152344 1164.085938 C 403.613281 1157.65625 414.816406 1147.789062 414.816406 1134.636719 C 414.816406 1121.972656 404.03125 1111.28125 384.335938 1104.226562 L 384.335938 1104.1875 C 384.335938 1103.996094 384.328125 1103.808594 384.316406 1103.621094 C 384.328125 1103.40625 384.335938 1103.1875 384.335938 1102.972656 C 384.335938 1086.410156 362.429688 1073.921875 333.382812 1073.921875 C 304.335938 1073.921875 282.429688 1086.410156 282.429688 1102.972656 C 282.429688 1103.125 282.433594 1103.277344 282.441406 1103.429688 C 282.433594 1103.566406 282.429688 1103.710938 282.429688 1103.851562 L 282.429688 1104.226562 C 262.742188 1111.285156 251.949219 1122.003906 251.949219 1134.636719 C 251.949219 1147.890625 263.324219 1157.816406 280 1164.242188 C 279.703125 1170.183594 282.453125 1178 291.316406 1184.988281 C 293.570312 1193.074219 296.738281 1200.71875 300.839844 1207.253906 L 296.027344 1215.730469 L 258.003906 1223.683594 C 257.527344 1223.777344 257.066406 1223.921875 256.617188 1224.097656 C 253.183594 1225.472656 223.082031 1239.605469 223.082031 1312.410156 C 223.082031 1316.988281 226.785156 1320.707031 231.363281 1320.722656 C 231.363281 1320.722656 250.34375 1320.789062 261.339844 1320.828125 C 262.265625 1324.410156 265.488281 1327.070312 269.359375 1327.070312 L 397.402344 1327.070312 C 401.273438 1327.070312 404.5 1324.410156 405.421875 1320.828125 C 416.421875 1320.789062 435.398438 1320.722656 435.398438 1320.722656 C 439.980469 1320.707031 443.683594 1316.988281 443.683594 1312.410156 C 443.683594 1239.605469 413.578125 1225.472656 410.144531 1224.097656 "/>
<path fill-rule="nonzero" fill="rgb(5.488586%, 13.719177%, 19.604492%)" fill-opacity="1" d="M 1342.980469 1214.660156 C 1341.679688 1226.125 1316.238281 1246.230469 1305.378906 1254.8125 C 1301.328125 1258.011719 1298.410156 1260.320312 1296.648438 1262.023438 C 1295.039062 1263.589844 1294.121094 1265.734375 1294.121094 1267.980469 L 1294.101562 1278.210938 C 1294.101562 1278.34375 1294.101562 1278.476562 1294.109375 1278.605469 L 1294.53125 1287.683594 C 1294.171875 1287.636719 1293.820312 1287.574219 1293.449219 1287.574219 L 1251.050781 1287.574219 L 1250.601562 1278.039062 L 1250.621094 1271.804688 C 1252.011719 1270.664062 1253.761719 1269.285156 1255.570312 1267.855469 C 1276.679688 1251.171875 1297.460938 1233.464844 1299.378906 1216.539062 C 1300.011719 1211.039062 1298.558594 1205.917969 1295.210938 1201.726562 C 1286.328125 1190.648438 1274.558594 1193.78125 1265.070312 1199.207031 C 1268.859375 1186.539062 1276.449219 1156.699219 1270.21875 1138.191406 C 1272.109375 1132.390625 1276.53125 1121.199219 1282.550781 1121.867188 C 1282.589844 1121.875 1286.699219 1122.390625 1288.300781 1124.976562 C 1289.691406 1127.210938 1289.398438 1131.3125 1287.480469 1136.542969 C 1287.28125 1137.101562 1287.140625 1137.664062 1287.058594 1138.230469 C 1280.621094 1151.382812 1278.78125 1169.375 1277.75 1179.519531 C 1277.28125 1184.089844 1280.601562 1188.171875 1285.171875 1188.632812 C 1289.769531 1189.117188 1293.820312 1185.773438 1294.289062 1181.210938 C 1298.039062 1144.457031 1305.089844 1138.722656 1309.121094 1138.722656 C 1309.199219 1138.722656 1309.28125 1138.722656 1309.359375 1138.726562 C 1311.570312 1138.851562 1312.550781 1139.660156 1313.351562 1140.832031 C 1319.671875 1150.097656 1314.019531 1180.136719 1307.980469 1198.511719 C 1307.890625 1198.796875 1307.808594 1199.085938 1307.75 1199.375 L 1304 1216.960938 C 1303.339844 1220.027344 1304.46875 1223.199219 1306.910156 1225.167969 C 1309.351562 1227.136719 1312.691406 1227.554688 1315.550781 1226.269531 C 1317.789062 1225.257812 1320.058594 1223.445312 1323.199219 1220.9375 C 1331.101562 1214.621094 1339.558594 1208.636719 1342.351562 1212.125 C 1342.851562 1212.742188 1343.128906 1213.382812 1342.980469 1214.660156 Z M 1252.488281 1318.945312 L 1251.808594 1304.199219 L 1293.449219 1304.199219 C 1294.078125 1304.199219 1294.691406 1304.113281 1295.28125 1303.980469 L 1295.96875 1318.945312 Z M 1236.53125 1262.023438 C 1234.910156 1263.589844 1234 1265.734375 1234 1267.980469 L 1233.980469 1278.210938 C 1233.980469 1278.34375 1233.980469 1278.476562 1233.988281 1278.605469 L 1235.851562 1318.945312 L 1146.351562 1318.945312 L 1147.148438 1304.199219 L 1211.960938 1304.199219 C 1216.550781 1304.199219 1220.28125 1300.476562 1220.28125 1295.886719 C 1220.28125 1291.296875 1216.550781 1287.574219 1211.960938 1287.574219 L 1148.050781 1287.574219 L 1148.871094 1272.226562 C 1148.878906 1271.992188 1148.878906 1271.753906 1148.878906 1271.519531 L 1146.898438 1207.761719 L 1146.898438 1202.628906 C 1146.839844 1183.382812 1146.761719 1157.023438 1154.570312 1149.398438 C 1155.949219 1148.054688 1157.480469 1147.453125 1159.679688 1147.566406 C 1159.941406 1147.570312 1160.210938 1147.566406 1160.46875 1147.550781 C 1159.890625 1150.078125 1159.378906 1152.777344 1158.96875 1155.667969 C 1157.519531 1165.71875 1157.519531 1175.601562 1157.78125 1182.125 C 1158.28125 1194.664062 1158.480469 1199.855469 1165.320312 1201.277344 C 1165.320312 1201.277344 1170.640625 1202.113281 1173.488281 1198.90625 C 1176.339844 1195.699219 1175.179688 1191.644531 1175.179688 1191.644531 C 1174.128906 1184.972656 1171.539062 1148.109375 1184.648438 1133.984375 C 1187.691406 1130.707031 1191.339844 1128.984375 1195.960938 1128.695312 C 1186.671875 1153.515625 1184.679688 1193.824219 1187.320312 1198.804688 C 1188.761719 1201.527344 1191.601562 1203.242188 1194.679688 1203.242188 C 1199.269531 1203.242188 1202.988281 1199.519531 1202.988281 1194.929688 C 1202.988281 1194.449219 1202.949219 1193.976562 1202.871094 1193.519531 C 1202.429688 1185.179688 1204.808594 1136.160156 1217.648438 1123.765625 C 1219.628906 1121.851562 1221.109375 1121.726562 1222.429688 1121.867188 C 1222.46875 1121.875 1226.570312 1122.390625 1228.179688 1124.976562 C 1229.558594 1127.210938 1229.269531 1131.3125 1227.359375 1136.542969 C 1227.160156 1137.089844 1227.019531 1137.644531 1226.941406 1138.199219 C 1220.058594 1152.4375 1218.171875 1173.1875 1216.820312 1188.042969 C 1216.558594 1190.804688 1216.339844 1193.320312 1216.101562 1195.480469 C 1215.601562 1200.042969 1218.898438 1204.148438 1223.460938 1204.644531 C 1228 1205.117188 1232.128906 1201.847656 1232.628906 1197.285156 C 1232.871094 1195.039062 1233.109375 1192.425781 1233.371094 1189.550781 C 1234.53125 1176.824219 1237.949219 1138.132812 1249.238281 1138.726562 C 1251.441406 1138.851562 1252.429688 1139.660156 1253.230469 1140.832031 C 1259.550781 1150.097656 1253.898438 1180.136719 1247.859375 1198.511719 C 1247.769531 1198.796875 1247.691406 1199.085938 1247.628906 1199.375 L 1243.878906 1216.960938 C 1243.21875 1220.027344 1244.351562 1223.199219 1246.789062 1225.167969 C 1249.230469 1227.136719 1252.570312 1227.554688 1255.429688 1226.269531 C 1257.671875 1225.257812 1259.941406 1223.445312 1263.078125 1220.9375 C 1270.980469 1214.621094 1279.441406 1208.636719 1282.230469 1212.125 C 1282.730469 1212.742188 1283.011719 1213.382812 1282.859375 1214.660156 C 1281.558594 1226.125 1256.121094 1246.230469 1245.261719 1254.8125 C 1241.210938 1258.011719 1238.289062 1260.320312 1236.53125 1262.023438 Z M 1202.75 1192.921875 C 1202.589844 1192.277344 1202.351562 1191.664062 1202.050781 1191.09375 C 1202.371094 1191.683594 1202.601562 1192.300781 1202.75 1192.921875 Z M 1355.328125 1201.726562 C 1346.449219 1190.648438 1334.679688 1193.78125 1325.191406 1199.207031 C 1329.488281 1184.855469 1338.671875 1148.449219 1327.089844 1131.46875 C 1323.191406 1125.753906 1317.378906 1122.527344 1310.289062 1122.128906 C 1308.441406 1122.019531 1306.699219 1122.128906 1305.058594 1122.417969 C 1304.46875 1120.101562 1303.539062 1117.941406 1302.261719 1115.949219 C 1296.441406 1106.863281 1285.960938 1105.492188 1284.148438 1105.320312 C 1276.21875 1104.476562 1265.820312 1107.394531 1257.980469 1123.949219 C 1255.601562 1122.914062 1252.988281 1122.285156 1250.160156 1122.128906 C 1248.308594 1122.019531 1246.570312 1122.121094 1244.929688 1122.40625 C 1244.351562 1120.09375 1243.421875 1117.941406 1242.140625 1115.949219 C 1236.308594 1106.863281 1225.839844 1105.492188 1224.03125 1105.320312 C 1218.691406 1104.761719 1211.320312 1105.847656 1204.601562 1113.363281 C 1203.519531 1112.707031 1202.289062 1112.285156 1200.949219 1112.175781 C 1190.789062 1111.355469 1174.910156 1113.652344 1165.441406 1133.058594 C 1164.03125 1131.792969 1162.171875 1131 1160.121094 1130.945312 C 1153.46875 1130.757812 1147.539062 1133.03125 1142.960938 1137.503906 C 1130.121094 1150.039062 1130.199219 1178.003906 1130.269531 1202.679688 L 1130.28125 1207.898438 C 1130.28125 1207.984375 1130.28125 1208.070312 1130.28125 1208.15625 L 1132.25 1271.683594 L 1129.28125 1326.808594 C 1129.160156 1329.089844 1129.980469 1331.320312 1131.550781 1332.976562 C 1133.121094 1334.632812 1135.300781 1335.570312 1137.578125 1335.570312 L 1304.679688 1335.570312 C 1306.949219 1335.570312 1309.121094 1334.640625 1310.691406 1333 C 1312.261719 1331.355469 1313.089844 1329.144531 1312.980469 1326.875 L 1310.730469 1278.039062 L 1310.738281 1271.804688 C 1312.128906 1270.664062 1313.878906 1269.285156 1315.691406 1267.855469 C 1336.800781 1251.171875 1357.578125 1233.464844 1359.5 1216.539062 C 1360.128906 1211.039062 1358.691406 1205.917969 1355.328125 1201.726562 "/>
<path fill-rule="nonzero" fill="rgb(100%, 100%, 100%)" fill-opacity="1" d="M 1 1 L 0 1 L 0 0 L 1 0 L 1 1 "/>
<path fill-rule="nonzero" fill="rgb(100%, 100%, 100%)" fill-opacity="1" d="M 1 2000 L 0 2000 L 0 1999 L 1 1999 L 1 2000 "/>
<path fill-rule="nonzero" fill="rgb(100%, 100%, 100%)" fill-opacity="1" d="M 2000 1 L 1999 1 L 1999 0 L 2000 0 L 2000 1 "/>
<path fill-rule="nonzero" fill="rgb(100%, 100%, 100%)" fill-opacity="1" d="M 2000 2000 L 1999 2000 L 1999 1999 L 2000 1999 L 2000 2000 "/>
</svg>
