<?xml version="1.0" encoding="UTF-8"?>
<svg xmlns="http://www.w3.org/2000/svg" xmlns:xlink="http://www.w3.org/1999/xlink" viewBox="248 669 174 231">
<path fill-rule="nonzero" fill="rgb(5.488586%, 13.719177%, 19.604492%)" fill-opacity="1" d="M 359.472656 725.148438 C 360.257812 711.101562 364.128906 700.730469 371.011719 694.308594 C 376.535156 689.140625 384.234375 686.449219 393.378906 686.449219 C 394.117188 686.449219 394.863281 686.46875 395.617188 686.5 C 399.050781 686.660156 402.042969 687.160156 404.128906 687.609375 C 393.210938 720.839844 368.042969 724.789062 359.472656 725.148438 Z M 393.699219 778.46875 L 390.675781 807.109375 L 285.011719 807.109375 L 281.988281 778.46875 Z M 377.84375 883.570312 L 297.84375 883.570312 L 292.53125 824.320312 L 383.15625 824.320312 Z M 321.34375 730.128906 L 321.339844 730.128906 C 309.535156 730.691406 280.683594 727.871094 263.261719 690.910156 C 266.949219 689.539062 273.695312 687.46875 281.378906 687.109375 C 297.535156 686.351562 317.835938 693.28125 324.503906 729.878906 C 323.617188 729.980469 322.554688 730.070312 321.34375 730.128906 Z M 417.011719 674.089844 L 412.378906 672.578125 C 411.660156 672.351562 405.148438 670.300781 396.394531 669.890625 C 381.65625 669.191406 368.980469 673.449219 359.660156 682.160156 C 348.855469 692.25 343.15625 707.710938 342.726562 728.140625 L 342.699219 729.960938 C 342.351562 730.351562 341.976562 730.789062 341.582031 731.300781 L 341.46875 730.570312 C 332.832031 674.191406 296.042969 669.78125 280.597656 670.511719 C 265.996094 671.191406 254.4375 676.488281 253.148438 677.101562 L 248.746094 679.199219 C 244.710938 681.121094 242.917969 685.898438 244.695312 690 L 246.636719 694.480469 C 266.621094 740.671875 301.660156 746.808594 318.847656 746.808594 C 320.023438 746.808594 321.121094 746.78125 322.117188 746.738281 C 325.464844 746.578125 328.035156 746.21875 329.609375 745.941406 C 330.867188 748.359375 332.488281 752.480469 333.191406 758.410156 C 333.214844 758.679688 333.226562 758.960938 333.277344 759.230469 C 333.363281 760.070312 333.425781 760.941406 333.46875 761.851562 L 272.75 761.851562 C 270.394531 761.851562 268.148438 762.851562 266.570312 764.601562 C 264.996094 766.351562 264.234375 768.691406 264.484375 771.039062 L 269.324219 816.878906 C 269.707031 820.5 272.386719 823.359375 275.820312 824.109375 L 281.964844 892.628906 C 282.347656 896.910156 285.9375 900.199219 290.242188 900.199219 L 385.445312 900.199219 C 389.746094 900.199219 393.339844 896.910156 393.722656 892.628906 L 399.867188 824.109375 C 403.300781 823.359375 405.976562 820.5 406.359375 816.878906 L 411.203125 771.039062 C 411.453125 768.691406 410.691406 766.351562 409.117188 764.601562 C 407.539062 762.851562 405.292969 761.851562 402.9375 761.851562 L 350.125 761.851562 C 350.066406 760.191406 349.949219 758.601562 349.785156 757.078125 C 350.238281 748.289062 353.097656 743.53125 354.566406 741.648438 L 354.757812 741.671875 C 354.757812 741.671875 355.230469 741.71875 356.117188 741.761719 L 356.125 741.761719 C 356.484375 741.78125 357.039062 741.800781 357.769531 741.800781 C 367.351562 741.800781 406.925781 738.710938 421.101562 688.960938 L 422.4375 684.269531 C 423.660156 679.96875 421.265625 675.46875 417.011719 674.089844 "/>
</svg>