<svg xmlns="http://www.w3.org/2000/svg" xmlns:xlink="http://www.w3.org/1999/xlink" width="851" zoomAndPan="magnify" viewBox="0 0 638.25 236.249991" height="315" preserveAspectRatio="xMidYMid meet" version="1.0"><defs><g/><clipPath id="ac90d85627"><path d="M 306 25 L 426.996094 25 L 426.996094 99.433594 L 306 99.433594 Z M 306 25 " clip-rule="nonzero"/></clipPath><clipPath id="4b02ff5351"><path d="M 210.183594 0 L 336 0 L 336 99.433594 L 210.183594 99.433594 Z M 210.183594 0 " clip-rule="nonzero"/></clipPath><clipPath id="e3547f8568"><path d="M 375 168.152344 L 405 168.152344 L 405 187 L 375 187 Z M 375 168.152344 " clip-rule="nonzero"/></clipPath><clipPath id="b6bc3ca679"><path d="M 397 168.152344 L 427.316406 168.152344 L 427.316406 192.078125 L 397 192.078125 Z M 397 168.152344 " clip-rule="nonzero"/></clipPath></defs><g clip-path="url(#ac90d85627)"><path fill="#f07f26" d="M 427.308594 99.304688 L 321.0625 99.304688 L 306.8125 83.589844 L 342.597656 44 L 359.929688 25.011719 L 427.308594 99.304688 " fill-opacity="1" fill-rule="nonzero"/></g><g clip-path="url(#4b02ff5351)"><path fill="#4caf50" d="M 335.789062 39.367188 L 281.425781 99.304688 L 210.183594 99.304688 L 262.546875 41.566406 L 300.210938 0.0390625 L 335.789062 39.367188 " fill-opacity="1" fill-rule="nonzero"/></g><path stroke-linecap="butt" transform="matrix(0.561955, 0, 0, 0.561955, 0.636088, 105.087523)" fill="none" stroke-linejoin="miter" d="M 151.369922 72.073919 C 154.532707 72.073919 157.000374 73.040132 158.765973 74.972559 C 160.52462 76.904986 161.407419 79.233629 161.407419 81.965441 C 161.407419 84.690302 160.52462 87.046751 158.765973 89.027836 C 157.000374 91.008921 154.532707 92.002939 151.369922 92.002939 L 109.878355 92.002939 C 105.978745 92.002939 103.163519 91.134042 101.432676 89.403199 C 99.701834 87.672357 98.839888 85.677369 98.839888 83.411286 C 98.839888 80.547402 99.785248 77.850345 101.682919 75.320118 L 131.496511 40.063755 L 109.078969 40.063755 C 105.943989 40.063755 103.511078 39.076688 101.759382 37.095603 C 100.014637 35.114518 99.138788 32.758069 99.138788 30.026257 C 99.138788 27.301397 100.014637 24.944948 101.759382 22.963863 C 103.511078 20.982778 105.943989 19.98876 109.078969 19.98876 L 151.369922 19.98876 C 154.43539 19.98876 156.791839 20.913266 158.439267 22.762279 C 160.086696 24.611292 160.906935 26.800912 160.906935 29.33114 C 160.906935 30.825643 160.705351 32.000391 160.28828 32.848435 C 159.871209 33.696478 159.294262 34.641838 158.564388 35.670612 L 128.848113 72.073919 Z M 197.609142 72.073919 L 233.317331 72.073919 C 236.480116 72.073919 238.926929 73.040132 240.657772 74.972559 C 242.388615 76.904986 243.250561 79.233629 243.250561 81.965441 C 243.250561 84.690302 242.388615 87.046751 240.657772 89.027836 C 238.926929 91.008921 236.480116 92.002939 233.317331 92.002939 L 179.181575 92.002939 L 179.181575 91.801355 C 178.521214 91.968183 177.833047 92.051597 177.13793 92.051597 C 174.53819 92.086353 172.209546 91.231358 170.145047 89.500516 C 168.080548 87.741868 166.836287 85.580053 166.398363 83.035922 C 165.96739 80.491792 166.815434 77.968515 168.949445 75.473043 L 212.039782 23.686785 C 214.069525 21.253874 216.384267 20.009613 218.984007 19.940102 C 219.414979 19.940102 219.845952 19.960955 220.283876 19.98876 L 233.317331 19.98876 C 236.480116 19.98876 238.926929 20.982778 240.657772 22.963863 C 242.388615 24.944948 243.250561 27.301397 243.250561 30.026257 C 243.250561 32.758069 242.388615 35.114518 240.657772 37.095603 C 238.926929 39.076688 236.480116 40.063755 233.317331 40.063755 L 224.273851 40.063755 L 218.580838 46.910663 L 233.866474 46.910663 C 236.730358 46.910663 238.954734 47.807365 240.553504 49.600768 C 242.152275 51.401122 242.95166 53.535133 242.95166 55.995849 C 242.95166 58.456566 242.152275 60.590576 240.553504 62.390931 C 238.954734 64.184334 236.730358 65.081036 233.866474 65.081036 L 203.45508 65.081036 Z M 296.57998 72.073919 C 299.645448 72.073919 301.981043 73.040132 303.600667 74.972559 C 305.21334 76.904986 306.019676 79.233629 306.019676 81.965441 C 306.019676 84.690302 305.21334 87.046751 303.600667 89.027836 C 301.981043 91.008921 299.645448 92.002939 296.57998 92.002939 L 261.177642 92.002939 C 254.615733 92.002939 251.341729 88.652472 251.341729 81.965441 L 251.341729 29.532724 C 251.341729 26.369939 252.314893 23.937028 254.261223 22.240941 C 256.207552 20.537903 258.515342 19.689859 261.177642 19.689859 C 263.805187 19.689859 266.112977 20.537903 268.094062 22.240941 C 270.075147 23.937028 271.062214 26.369939 271.062214 29.532724 L 271.062214 69.974664 C 271.229042 71.476117 272.063183 72.178186 273.557686 72.073919 Z M 341.672256 72.073919 L 377.373493 72.073919 C 380.536278 72.073919 382.983092 73.040132 384.713935 74.972559 C 386.444778 76.904986 387.313674 79.233629 387.313674 81.965441 C 387.313674 84.690302 386.444778 87.046751 384.713935 89.027836 C 382.983092 91.008921 380.536278 92.002939 377.373493 92.002939 L 323.244689 92.002939 L 323.244689 91.801355 C 322.577376 91.968183 321.896161 92.051597 321.194092 92.051597 C 318.601304 92.086353 316.27266 91.231358 314.208161 89.500516 C 312.143662 87.741868 310.89245 85.580053 310.461477 83.035922 C 310.030504 80.491792 310.878548 77.968515 313.005607 75.473043 L 356.102896 23.686785 C 358.132639 21.253874 360.447381 20.009613 363.04712 19.940102 C 363.478093 19.940102 363.909066 19.960955 364.340039 19.98876 L 377.373493 19.98876 C 380.536278 19.98876 382.983092 20.982778 384.713935 22.963863 C 386.444778 24.944948 387.313674 27.301397 387.313674 30.026257 C 387.313674 32.758069 386.444778 35.114518 384.713935 37.095603 C 382.983092 39.076688 380.536278 40.063755 377.373493 40.063755 L 368.336965 40.063755 L 362.643952 46.910663 L 377.922636 46.910663 C 380.786521 46.910663 383.017848 47.807365 384.616618 49.600768 C 386.215389 51.401122 387.014774 53.535133 387.014774 55.995849 C 387.014774 58.456566 386.215389 60.590576 384.616618 62.390931 C 383.017848 64.184334 380.786521 65.081036 377.922636 65.081036 L 347.511243 65.081036 Z M 412.727172 41.266308 L 412.727172 82.660559 C 412.727172 85.691272 411.760959 88.006013 409.828532 89.604783 C 407.903057 91.203554 405.588315 92.002939 402.891259 92.002939 C 400.194203 92.002939 397.865559 91.203554 395.898376 89.604783 C 393.931194 88.006013 392.951078 85.691272 392.951078 82.660559 L 392.951078 30.227842 C 392.951078 23.735444 396.266789 20.489245 402.891259 20.489245 L 419.970297 20.440586 L 424.412099 20.690829 C 427.408055 21.024485 430.369256 21.7057 433.302652 22.741425 C 437.695795 24.270684 441.602356 26.606279 445.008432 29.755162 C 448.421459 32.897093 451.188027 36.789751 453.301184 41.412283 C 455.414342 46.041766 456.47092 51.498439 456.47092 57.796204 L 456.47092 81.965441 C 456.47092 83.626772 456.178971 85.086519 455.595072 86.33078 C 455.018125 87.581991 454.246544 88.63857 453.301184 89.500516 C 452.348873 90.369413 451.278392 91.015872 450.08279 91.453796 C 448.880237 91.884769 447.635976 92.100255 446.336106 92.100255 C 445.036236 92.100255 443.771123 91.884769 442.540764 91.453796 C 441.310406 91.015872 440.232974 90.369413 439.315419 89.500516 C 438.404815 88.63857 437.654088 87.581991 437.070189 86.33078 C 436.486291 85.086519 436.194341 83.626772 436.194341 81.965441 L 436.194341 56.246092 C 436.194341 53.451719 435.756417 51.025759 434.873618 48.982113 C 433.990818 46.931516 432.621437 45.172869 430.751571 43.713122 C 428.888656 42.246424 425.962211 41.328869 421.965285 40.967408 C 420.866999 40.897896 419.838225 40.828384 418.872012 40.765824 L 415.02106 40.765824 C 413.922775 40.828384 413.158145 40.995213 412.727172 41.266308 Z M 503.307941 47.904681 L 503.307941 38.416326 L 490.82363 38.416326 C 484.630133 38.416326 481.536859 41.363625 481.536859 47.258222 L 481.536859 47.953339 C 481.905272 48.321752 482.767218 48.558092 484.136599 48.655408 L 501.062712 48.655408 C 502.29307 48.523336 503.043797 48.273093 503.307941 47.904681 Z M 503.259283 67.479191 C 502.890871 67.145535 501.924657 66.950902 500.360643 66.88139 L 500.360643 66.832732 L 483.587456 66.832732 C 482.621243 66.895293 481.933076 67.034316 481.536859 67.228949 L 481.536859 81.416299 C 481.536859 82.980313 481.272715 84.377499 480.737474 85.607857 C 480.202234 86.838215 479.486263 87.866989 478.589561 88.680277 C 477.692859 89.493565 476.650183 90.126122 475.468483 90.577948 C 474.286783 91.022823 473.049474 91.252212 471.749604 91.252212 C 469.017792 91.252212 466.661344 90.390266 464.680259 88.680277 C 462.699174 86.963337 461.712107 84.544328 461.712107 81.416299 L 461.712107 51.303806 C 461.677351 30.596254 470.984975 20.058272 489.628028 19.689859 C 490.024245 19.662055 490.441315 19.641201 490.872288 19.641201 L 513.199464 19.641201 C 519.691862 19.675957 522.917208 23.00557 522.882452 29.63004 L 522.833794 82.160074 C 522.833794 85.295054 521.86758 87.700161 519.935153 89.375395 C 518.009678 91.057579 515.708839 91.898671 513.046538 91.898671 C 510.418994 91.898671 508.118155 91.050628 506.157923 89.354541 C 504.190741 87.658454 503.224527 85.260299 503.259283 82.160074 Z M 548.101317 38.770836 L 548.198633 74.673658 C 548.629606 74.937803 549.428991 75.118533 550.596789 75.222801 L 554.593715 75.222801 L 554.593715 75.271459 L 571.220927 75.271459 C 572.750185 75.271459 573.883227 74.736219 574.6131 73.672689 C 575.315169 72.609159 575.398583 67.694678 574.863343 58.943148 L 561.829889 38.270352 L 549.59582 38.270352 C 548.928507 38.367668 548.434973 38.534496 548.101317 38.770836 Z M 593.791394 73.373788 C 594.722851 86.560168 588.80045 92.767568 576.017238 92.002939 L 538.265403 92.002939 C 532.968608 92.002939 530.32021 88.617716 530.32021 81.861174 L 530.32021 55.446707 L 530.271551 55.446707 L 530.271551 30.026257 C 530.271551 28.733339 530.487038 27.009447 530.918011 24.861534 C 531.355935 22.713621 532.767023 21.365093 535.165179 20.81595 C 537.563335 20.266807 539.377591 19.98876 540.60795 19.98876 L 564.179386 19.98876 C 567.474243 19.794127 571.485071 22.35216 576.211871 27.683711 L 588.995083 46.458837 C 592.491524 52.047582 594.12505 56.878649 593.88871 60.938135 Z M 617.710389 61.237036 L 648.420683 23.040326 C 650.082014 21.337288 651.861515 20.322416 653.759186 19.98876 C 655.656857 19.662055 657.422455 19.821932 659.055981 20.489245 C 660.251584 20.954973 661.377674 21.636189 662.427302 22.539841 C 663.476929 23.436543 664.318021 24.451415 664.950578 25.584456 C 665.583135 26.717498 665.972401 27.940905 666.118376 29.254677 C 666.271302 30.568449 666.076669 31.896124 665.548379 33.223798 C 665.179967 34.092695 664.832408 34.753057 664.498752 35.218786 C 664.165095 35.691466 663.734123 36.136341 663.198882 36.567314 L 619.25355 87.303944 C 617.12649 89.604783 614.971626 91.008921 612.788957 91.523308 C 610.606288 92.044646 607.78411 91.801355 604.322425 90.800386 C 601.861709 89.799416 600.249036 88.562107 599.484407 87.081507 C 598.712826 85.600906 598.302707 83.863112 598.233195 81.861174 L 598.233195 29.282482 C 598.198439 28.615169 598.226244 27.947856 598.309658 27.280543 C 598.393072 26.61323 598.566852 25.932015 598.830996 25.236897 C 599.366237 23.971784 600.130866 22.915205 601.131835 22.067161 C 602.125853 21.212167 603.251944 20.600463 604.503155 20.218149 C 605.747416 19.835834 606.977774 19.662055 608.19423 19.689859 C 609.410685 19.724615 610.647995 19.98876 611.913109 20.489245 C 613.546635 21.156557 614.950772 22.268746 616.132472 23.839711 C 617.314172 25.403726 617.842461 27.329201 617.710389 29.63004 Z M 667.939584 55.995849 C 667.939584 50.900638 668.898846 46.132131 670.810419 41.69033 C 672.728944 37.241578 675.349537 33.355871 678.67915 30.026257 C 682.008763 26.696644 685.89447 24.076051 690.336272 22.164478 C 694.785024 20.252905 699.55353 19.293642 704.641791 19.293642 C 709.771758 19.293642 714.56807 20.252905 719.023773 22.164478 C 723.486428 24.076051 727.372135 26.696644 730.687846 30.026257 C 733.996605 33.355871 736.631101 37.241578 738.57743 41.69033 C 740.523759 46.132131 741.496924 50.900638 741.496924 55.995849 C 741.496924 61.125817 740.523759 65.901275 738.57743 70.329173 C 736.631101 74.757072 733.996605 78.642779 730.687846 81.986295 C 727.372135 85.336762 723.486428 87.957355 719.023773 89.855026 C 714.56807 91.752697 709.771758 92.698056 704.641791 92.698056 C 699.55353 92.698056 694.785024 91.752697 690.336272 89.855026 C 685.89447 87.957355 682.008763 85.336762 678.67915 81.986295 C 675.349537 78.642779 672.728944 74.757072 670.810419 70.329173 C 668.898846 65.901275 667.939584 61.125817 667.939584 55.995849 Z M 688.063237 56.29475 C 688.063237 58.623394 688.515064 60.799112 689.411765 62.814953 C 690.315418 64.823842 691.51102 66.58249 693.012474 68.076993 C 694.506977 69.578447 696.265624 70.753195 698.274514 71.601239 C 700.290355 72.449282 702.445219 72.873304 704.746059 72.873304 C 707.074702 72.873304 709.25042 72.449282 711.25931 71.601239 C 713.275151 70.753195 715.047701 69.578447 716.576959 68.076993 C 718.113169 66.58249 719.315723 64.823842 720.198522 62.814953 C 721.081321 60.799112 721.526196 58.623394 721.526196 56.29475 C 721.526196 54.000862 721.081321 51.825144 720.198522 49.781498 C 719.315723 47.730902 718.113169 45.958352 716.576959 44.463849 C 715.047701 42.962395 713.275151 41.766793 711.25931 40.86314 C 709.25042 39.966439 707.074702 39.514612 704.746059 39.514612 C 702.445219 39.514612 700.290355 39.966439 698.274514 40.86314 C 696.265624 41.766793 694.506977 42.962395 693.012474 44.463849 C 691.51102 45.958352 690.315418 47.730902 689.411765 49.781498 C 688.515064 51.825144 688.063237 54.000862 688.063237 56.29475 Z M 795.57707 64.184334 L 806.309685 77.81559 C 808.311623 80.415329 808.930278 82.869094 808.186502 85.183836 C 807.435775 87.498577 806.010784 89.319785 803.911529 90.654411 C 801.749714 92.016841 799.476679 92.524277 797.099377 92.176718 C 794.715124 91.822208 792.532455 90.35551 790.530516 87.755771 L 771.609416 63.635191 C 770.038451 61.139719 769.607478 58.727661 770.309547 56.392066 C 770.810031 54.633419 771.574661 53.152819 772.603435 51.950265 C 772.672946 51.887705 772.721605 51.818193 772.75636 51.748681 C 774.250863 50.351495 776.06512 49.572963 778.199131 49.406135 L 781.292404 49.406135 L 786.839442 49.357477 C 789.466986 49.489549 791.482827 49.517354 792.880014 49.454793 L 783.343001 39.069737 L 768.460534 39.069737 C 768.057366 39.167053 767.758465 39.319979 767.563832 39.514612 L 767.563832 40.668507 L 767.508223 40.668507 L 767.508223 82.0141 L 767.459565 82.0141 C 767.459565 88.673326 764.129951 92.002939 757.470725 92.002939 C 751.478812 92.002939 748.482855 88.617716 748.482855 81.861174 L 748.482855 30.026257 C 748.482855 23.339227 751.311984 19.98876 756.977192 19.98876 L 785.887131 19.98876 C 788.417359 19.98876 791.79563 21.886431 796.021945 25.681773 L 804.766524 36.518655 C 807.790285 40.550337 809.243081 44.060681 809.111009 47.056638 C 809.208325 47.953339 809.208325 48.773578 809.111009 49.503451 L 809.111009 54.647321 C 809.111009 57.844862 808.123942 60.229115 806.16371 61.813983 C 804.196528 63.3919 801.90264 64.184334 799.268144 64.184334 Z M 835.275234 82.514584 C 835.275234 85.774686 834.288167 88.235402 832.327935 89.903684 C 830.360752 91.565015 828.046011 92.399156 825.383711 92.399156 C 822.651899 92.399156 820.316304 91.565015 818.369975 89.903684 C 816.423645 88.235402 815.450481 85.774686 815.450481 82.514584 L 815.450481 29.532724 C 815.450481 26.369939 816.423645 23.937028 818.369975 22.240941 C 820.316304 20.537903 822.651899 19.689859 825.383711 19.689859 C 828.046011 19.689859 830.360752 20.537903 832.327935 22.240941 C 834.288167 23.937028 835.275234 26.369939 835.275234 29.532724 Z M 900.289579 83.557261 C 900.289579 89.187713 896.973868 92.002939 890.349398 92.002939 L 853.146706 92.002939 C 851.520131 92.002939 850.088189 91.71099 848.850879 91.127091 C 847.620521 90.543192 846.598699 89.792465 845.785411 88.881861 C 844.965172 87.964306 844.353469 86.907727 843.936398 85.705174 C 843.519328 84.509572 843.310793 83.25836 843.310793 81.965441 C 843.310793 80.728132 843.519328 79.525579 843.936398 78.343879 C 844.353469 77.162179 844.986026 76.1056 845.834069 75.174143 C 846.682113 74.242685 847.738691 73.491958 849.003805 72.921962 C 850.268919 72.358917 851.714764 72.073919 853.34829 72.073919 L 879.01203 72.073919 C 881.709086 72.073919 883.050663 71.684653 883.036761 70.89917 C 883.015907 70.120638 883.008956 69.279546 883.008956 68.382844 C 883.008956 67.416631 883.015907 66.52688 883.036761 65.706642 C 883.050663 64.893354 881.709086 64.483235 879.01203 64.483235 L 852.799147 64.483235 C 849.434778 64.483235 846.814185 63.857629 844.930416 62.613369 C 843.053599 61.362157 842.080434 58.727661 842.010923 54.69598 C 841.746778 50.003936 842.567017 44.436044 844.485541 37.992305 C 846.397114 31.548565 850.088189 26.939935 855.544862 24.159465 C 861.001534 21.378995 866.965643 19.98876 873.423285 19.98876 L 888.152826 19.98876 C 889.848913 19.98876 891.350367 20.280709 892.650237 20.864608 C 893.943155 21.448507 895.03449 22.199234 895.917289 23.109838 C 896.800089 24.027393 897.467401 25.083972 897.919228 26.286525 C 898.364103 27.482127 898.593492 28.698583 898.593492 29.928941 C 898.593492 31.159299 898.447517 32.215878 898.16947 33.098677 C 897.884472 33.981476 897.300573 34.905983 896.417774 35.872196 C 895.534975 36.83841 894.429738 37.60999 893.095112 38.193889 C 891.767438 38.777788 890.252081 39.069737 888.555994 39.069737 L 866.381744 39.069737 C 864.352001 39.069737 862.871401 39.660587 861.939943 40.842287 C 861.001534 42.023987 860.424587 43.177882 860.188247 44.310923 C 859.958858 45.443965 860.174344 46.257252 860.841657 46.757737 C 861.502019 47.258222 862.516891 47.508464 863.886272 47.508464 L 889.105137 47.508464 C 896.327409 47.508464 900.011532 49.26016 900.164458 52.777455 C 900.310432 56.287799 900.352139 66.547734 900.289579 83.557261 Z M 880.610801 -4.625353 C 881.910671 -5.695834 883.21054 -6.224123 884.51041 -6.224123 C 885.970157 -6.224123 887.235271 -5.681932 888.305752 -4.604499 C 889.369282 -3.520116 889.904522 -2.248051 889.904522 -0.781353 C 889.904522 0.71315 889.369282 1.999118 888.305752 3.062647 L 874.22267 17.291704 C 872.992312 18.529013 871.692442 19.140716 870.323061 19.140716 C 868.96063 19.140716 867.660761 18.542915 866.430403 17.347313 L 852.201346 3.159964 C 851.068304 2.061678 850.498308 0.782662 850.498308 -0.684036 C 850.498308 -1.41391 850.651234 -2.115978 850.950134 -2.77634 C 851.249035 -3.443653 851.659154 -4.013649 852.173541 -4.479378 C 852.687928 -4.945107 853.271827 -5.334373 853.925238 -5.654127 C 854.571697 -5.96693 855.259863 -6.126807 855.996688 -6.126807 C 857.491191 -6.126807 858.777158 -5.591566 859.840688 -4.528036 L 870.323061 5.759703 Z M 944.930028 82.514584 C 944.930028 85.774686 943.93601 88.235402 941.954925 89.903684 C 939.97384 91.565015 937.638245 92.399156 934.941189 92.399156 C 932.278889 92.399156 929.971098 91.565015 928.024769 89.903684 C 926.07844 88.235402 925.105276 85.774686 925.105276 82.514584 L 925.105276 40.063755 L 913.170107 40.063755 C 910.007322 40.063755 907.560508 39.076688 905.829666 37.095603 C 904.098823 35.114518 903.229926 32.758069 903.229926 30.026257 C 903.229926 27.301397 904.098823 24.944948 905.829666 22.963863 C 907.560508 20.982778 910.007322 19.98876 913.170107 19.98876 L 956.663613 19.98876 C 959.826398 19.98876 962.287114 20.982778 964.052712 22.963863 C 965.818311 24.944948 966.70111 27.301397 966.70111 30.026257 C 966.70111 32.758069 965.818311 35.114518 964.052712 37.095603 C 962.287114 39.076688 959.826398 40.063755 956.663613 40.063755 L 944.930028 40.063755 Z M 1014.135932 47.904681 L 1014.135932 38.416326 L 1001.651621 38.416326 C 995.465075 38.416326 992.364851 41.363625 992.364851 47.258222 L 992.364851 47.953339 C 992.733263 48.321752 993.595209 48.558092 994.96459 48.655408 L 1011.890703 48.655408 C 1013.121061 48.523336 1013.871788 48.273093 1014.135932 47.904681 Z M 1014.087274 67.479191 C 1013.718862 67.145535 1012.7596 66.950902 1011.188634 66.88139 L 1011.188634 66.832732 L 994.415447 66.832732 C 993.449234 66.895293 992.768019 67.034316 992.364851 67.228949 L 992.364851 81.416299 C 992.364851 82.980313 992.100706 84.377499 991.565465 85.607857 C 991.037176 86.838215 990.321205 87.866989 989.417552 88.680277 C 988.52085 89.493565 987.478174 90.126122 986.296474 90.577948 C 985.114774 91.022823 983.877465 91.252212 982.577595 91.252212 C 979.845783 91.252212 977.496286 90.390266 975.515201 88.680277 C 973.534116 86.963337 972.540098 84.544328 972.540098 81.416299 L 972.540098 51.303806 C 972.505342 30.596254 981.812966 20.058272 1000.456019 19.689859 C 1000.852236 19.662055 1001.269306 19.641201 1001.70723 19.641201 L 1024.027455 19.641201 C 1030.519853 19.675957 1033.745199 23.00557 1033.710443 29.63004 L 1033.661785 82.160074 C 1033.661785 85.295054 1032.695571 87.700161 1030.770096 89.375395 C 1028.837669 91.057579 1026.53683 91.898671 1023.874529 91.898671 C 1021.246985 91.898671 1018.946146 91.050628 1016.985914 89.354541 C 1015.018732 87.658454 1014.052518 85.260299 1014.087274 82.160074 Z M 1014.087274 67.479191 " stroke="#005804" stroke-width="7.67025" stroke-opacity="1" stroke-miterlimit="4"/><g fill="#4caf50" fill-opacity="1"><g transform="translate(54.074525, 156.787411)"><g><path d="M 31.625 -11.203125 C 33.40625 -11.203125 34.789062 -10.65625 35.78125 -9.5625 C 36.769531 -8.476562 37.265625 -7.171875 37.265625 -5.640625 C 37.265625 -4.109375 36.769531 -2.785156 35.78125 -1.671875 C 34.789062 -0.554688 33.40625 0 31.625 0 L 8.3125 0 C 6.113281 0 4.53125 -0.484375 3.5625 -1.453125 C 2.59375 -2.429688 2.109375 -3.554688 2.109375 -4.828125 C 2.109375 -6.429688 2.640625 -7.945312 3.703125 -9.375 L 20.453125 -29.1875 L 7.859375 -29.1875 C 6.097656 -29.1875 4.722656 -29.738281 3.734375 -30.84375 C 2.753906 -31.957031 2.265625 -33.285156 2.265625 -34.828125 C 2.265625 -36.359375 2.753906 -37.679688 3.734375 -38.796875 C 4.722656 -39.910156 6.097656 -40.46875 7.859375 -40.46875 L 31.625 -40.46875 C 33.34375 -40.46875 34.664062 -39.945312 35.59375 -38.90625 C 36.519531 -37.863281 36.984375 -36.632812 36.984375 -35.21875 C 36.984375 -34.375 36.863281 -33.710938 36.625 -33.234375 C 36.394531 -32.753906 36.078125 -32.226562 35.671875 -31.65625 L 18.96875 -11.203125 Z M 31.625 -11.203125 "/></g></g></g><g fill="#4caf50" fill-opacity="1"><g transform="translate(92.938868, 156.787411)"><g><path d="M 18.75 -11.203125 L 38.8125 -11.203125 C 40.582031 -11.203125 41.953125 -10.65625 42.921875 -9.5625 C 43.898438 -8.476562 44.390625 -7.171875 44.390625 -5.640625 C 44.390625 -4.109375 43.898438 -2.785156 42.921875 -1.671875 C 41.953125 -0.554688 40.582031 0 38.8125 0 L 8.390625 0 L 8.390625 -0.109375 C 8.015625 -0.015625 7.628906 0.03125 7.234375 0.03125 C 5.773438 0.0507812 4.46875 -0.425781 3.3125 -1.40625 C 2.15625 -2.394531 1.453125 -3.601562 1.203125 -5.03125 C 0.960938 -6.46875 1.441406 -7.882812 2.640625 -9.28125 L 26.859375 -38.390625 C 27.992188 -39.753906 29.289062 -40.453125 30.75 -40.484375 C 31 -40.484375 31.242188 -40.476562 31.484375 -40.46875 L 38.8125 -40.46875 C 40.582031 -40.46875 41.953125 -39.910156 42.921875 -38.796875 C 43.898438 -37.679688 44.390625 -36.359375 44.390625 -34.828125 C 44.390625 -33.285156 43.898438 -31.957031 42.921875 -30.84375 C 41.953125 -29.738281 40.582031 -29.1875 38.8125 -29.1875 L 33.734375 -29.1875 L 30.53125 -25.34375 L 39.109375 -25.34375 C 40.722656 -25.34375 41.976562 -24.835938 42.875 -23.828125 C 43.769531 -22.816406 44.21875 -21.617188 44.21875 -20.234375 C 44.21875 -18.847656 43.769531 -17.648438 42.875 -16.640625 C 41.976562 -15.628906 40.722656 -15.125 39.109375 -15.125 L 22.03125 -15.125 Z M 18.75 -11.203125 "/></g></g></g><g fill="#4caf50" fill-opacity="1"><g transform="translate(139.604139, 156.787411)"><g><path d="M 27.703125 -11.203125 C 29.421875 -11.203125 30.734375 -10.65625 31.640625 -9.5625 C 32.546875 -8.476562 33 -7.171875 33 -5.640625 C 33 -4.109375 32.546875 -2.785156 31.640625 -1.671875 C 30.734375 -0.554688 29.421875 0 27.703125 0 L 7.796875 0 C 4.109375 0 2.265625 -1.878906 2.265625 -5.640625 L 2.265625 -35.109375 C 2.265625 -36.878906 2.8125 -38.238281 3.90625 -39.1875 C 5.007812 -40.144531 6.304688 -40.625 7.796875 -40.625 C 9.273438 -40.625 10.570312 -40.144531 11.6875 -39.1875 C 12.800781 -38.238281 13.359375 -36.878906 13.359375 -35.109375 L 13.359375 -12.375 C 13.453125 -11.53125 13.921875 -11.140625 14.765625 -11.203125 Z M 27.703125 -11.203125 "/></g></g></g><g fill="#4caf50" fill-opacity="1"><g transform="translate(173.894551, 156.787411)"><g><path d="M 18.75 -11.203125 L 38.8125 -11.203125 C 40.582031 -11.203125 41.953125 -10.65625 42.921875 -9.5625 C 43.898438 -8.476562 44.390625 -7.171875 44.390625 -5.640625 C 44.390625 -4.109375 43.898438 -2.785156 42.921875 -1.671875 C 41.953125 -0.554688 40.582031 0 38.8125 0 L 8.390625 0 L 8.390625 -0.109375 C 8.015625 -0.015625 7.628906 0.03125 7.234375 0.03125 C 5.773438 0.0507812 4.46875 -0.425781 3.3125 -1.40625 C 2.15625 -2.394531 1.453125 -3.601562 1.203125 -5.03125 C 0.960938 -6.46875 1.441406 -7.882812 2.640625 -9.28125 L 26.859375 -38.390625 C 27.992188 -39.753906 29.289062 -40.453125 30.75 -40.484375 C 31 -40.484375 31.242188 -40.476562 31.484375 -40.46875 L 38.8125 -40.46875 C 40.582031 -40.46875 41.953125 -39.910156 42.921875 -38.796875 C 43.898438 -37.679688 44.390625 -36.359375 44.390625 -34.828125 C 44.390625 -33.285156 43.898438 -31.957031 42.921875 -30.84375 C 41.953125 -29.738281 40.582031 -29.1875 38.8125 -29.1875 L 33.734375 -29.1875 L 30.53125 -25.34375 L 39.109375 -25.34375 C 40.722656 -25.34375 41.976562 -24.835938 42.875 -23.828125 C 43.769531 -22.816406 44.21875 -21.617188 44.21875 -20.234375 C 44.21875 -18.847656 43.769531 -17.648438 42.875 -16.640625 C 41.976562 -15.628906 40.722656 -15.125 39.109375 -15.125 L 22.03125 -15.125 Z M 18.75 -11.203125 "/></g></g></g><g fill="#4caf50" fill-opacity="1"><g transform="translate(220.559822, 156.787411)"><g><path d="M 12.015625 -28.515625 L 12.015625 -5.25 C 12.015625 -3.539062 11.46875 -2.238281 10.375 -1.34375 C 9.289062 -0.445312 7.992188 0 6.484375 0 C 4.960938 0 3.648438 -0.445312 2.546875 -1.34375 C 1.441406 -2.238281 0.890625 -3.539062 0.890625 -5.25 L 0.890625 -34.71875 C 0.890625 -38.363281 2.753906 -40.1875 6.484375 -40.1875 L 16.078125 -40.21875 L 18.578125 -40.078125 C 20.265625 -39.890625 21.929688 -39.503906 23.578125 -38.921875 C 26.046875 -38.054688 28.238281 -36.738281 30.15625 -34.96875 C 32.070312 -33.207031 33.625 -31.023438 34.8125 -28.421875 C 36 -25.828125 36.59375 -22.757812 36.59375 -19.21875 L 36.59375 -5.640625 C 36.59375 -4.703125 36.425781 -3.878906 36.09375 -3.171875 C 35.769531 -2.472656 35.34375 -1.878906 34.8125 -1.390625 C 34.28125 -0.910156 33.675781 -0.546875 33 -0.296875 C 32.320312 -0.0546875 31.617188 0.0625 30.890625 0.0625 C 30.160156 0.0625 29.445312 -0.0546875 28.75 -0.296875 C 28.0625 -0.546875 27.460938 -0.910156 26.953125 -1.390625 C 26.441406 -1.878906 26.019531 -2.472656 25.6875 -3.171875 C 25.363281 -3.878906 25.203125 -4.703125 25.203125 -5.640625 L 25.203125 -20.09375 C 25.203125 -21.664062 24.953125 -23.023438 24.453125 -24.171875 C 23.960938 -25.328125 23.191406 -26.316406 22.140625 -27.140625 C 21.085938 -27.960938 19.441406 -28.472656 17.203125 -28.671875 C 16.585938 -28.710938 16.007812 -28.753906 15.46875 -28.796875 L 13.296875 -28.796875 C 12.679688 -28.753906 12.253906 -28.660156 12.015625 -28.515625 Z M 12.015625 -28.515625 "/></g></g></g><g fill="#4caf50" fill-opacity="1"><g transform="translate(258.049176, 156.787411)"><g><path d="M 25.421875 -24.78125 L 25.421875 -30.109375 L 18.40625 -30.109375 C 14.925781 -30.109375 13.1875 -28.453125 13.1875 -25.140625 L 13.1875 -24.75 C 13.394531 -24.539062 13.878906 -24.410156 14.640625 -24.359375 L 24.15625 -24.359375 C 24.851562 -24.429688 25.273438 -24.570312 25.421875 -24.78125 Z M 25.390625 -13.78125 C 25.191406 -13.96875 24.648438 -14.078125 23.765625 -14.109375 L 23.765625 -14.140625 L 14.34375 -14.140625 C 13.800781 -14.109375 13.414062 -14.035156 13.1875 -13.921875 L 13.1875 -5.953125 C 13.1875 -5.066406 13.035156 -4.273438 12.734375 -3.578125 C 12.441406 -2.890625 12.039062 -2.316406 11.53125 -1.859375 C 11.03125 -1.398438 10.445312 -1.046875 9.78125 -0.796875 C 9.113281 -0.546875 8.414062 -0.421875 7.6875 -0.421875 C 6.15625 -0.421875 4.832031 -0.898438 3.71875 -1.859375 C 2.601562 -2.828125 2.046875 -4.191406 2.046875 -5.953125 L 2.046875 -22.875 C 2.023438 -34.507812 7.253906 -40.425781 17.734375 -40.625 C 17.960938 -40.644531 18.195312 -40.65625 18.4375 -40.65625 L 30.984375 -40.65625 C 34.628906 -40.632812 36.441406 -38.765625 36.421875 -35.046875 L 36.390625 -5.53125 C 36.390625 -3.769531 35.847656 -2.414062 34.765625 -1.46875 C 33.679688 -0.53125 32.390625 -0.0625 30.890625 -0.0625 C 29.410156 -0.0625 28.117188 -0.535156 27.015625 -1.484375 C 25.910156 -2.441406 25.367188 -3.789062 25.390625 -5.53125 Z M 25.390625 -13.78125 "/></g></g></g><g fill="#4caf50" fill-opacity="1"><g transform="translate(296.352309, 156.787411)"><g><path d="M 12.296875 -29.90625 L 12.34375 -9.734375 C 12.59375 -9.585938 13.039062 -9.484375 13.6875 -9.421875 L 15.9375 -9.421875 L 15.9375 -9.40625 L 25.28125 -9.40625 C 26.144531 -9.40625 26.78125 -9.703125 27.1875 -10.296875 C 27.582031 -10.898438 27.628906 -13.660156 27.328125 -18.578125 L 20 -30.1875 L 13.125 -30.1875 C 12.757812 -30.132812 12.484375 -30.039062 12.296875 -29.90625 Z M 37.96875 -10.46875 C 38.488281 -3.0625 35.160156 0.425781 27.984375 0 L 6.765625 0 C 3.785156 0 2.296875 -1.898438 2.296875 -5.703125 L 2.296875 -20.546875 L 2.265625 -20.546875 L 2.265625 -34.828125 C 2.265625 -35.554688 2.382812 -36.519531 2.625 -37.71875 C 2.875 -38.925781 3.671875 -39.6875 5.015625 -40 C 6.367188 -40.3125 7.390625 -40.46875 8.078125 -40.46875 L 21.328125 -40.46875 C 23.179688 -40.570312 25.4375 -39.128906 28.09375 -36.140625 L 35.265625 -25.59375 C 37.234375 -22.445312 38.148438 -19.734375 38.015625 -17.453125 Z M 37.96875 -10.46875 "/></g></g></g><g fill="#4caf50" fill-opacity="1"><g transform="translate(335.83399, 156.787411)"><g><path d="M 11.921875 -17.28125 L 29.1875 -38.75 C 30.125 -39.707031 31.125 -40.28125 32.1875 -40.46875 C 33.25 -40.65625 34.238281 -40.5625 35.15625 -40.1875 C 35.832031 -39.925781 36.460938 -39.539062 37.046875 -39.03125 C 37.640625 -38.53125 38.113281 -37.957031 38.46875 -37.3125 C 38.820312 -36.675781 39.039062 -35.988281 39.125 -35.25 C 39.207031 -34.519531 39.101562 -33.78125 38.8125 -33.03125 C 38.601562 -32.539062 38.40625 -32.164062 38.21875 -31.90625 C 38.03125 -31.644531 37.785156 -31.390625 37.484375 -31.140625 L 12.796875 -2.640625 C 11.597656 -1.347656 10.382812 -0.554688 9.15625 -0.265625 C 7.9375 0.0234375 6.351562 -0.109375 4.40625 -0.671875 C 3.019531 -1.234375 2.109375 -1.929688 1.671875 -2.765625 C 1.242188 -3.597656 1.015625 -4.578125 0.984375 -5.703125 L 0.984375 -35.25 C 0.960938 -35.625 0.972656 -35.992188 1.015625 -36.359375 C 1.066406 -36.734375 1.164062 -37.117188 1.3125 -37.515625 C 1.613281 -38.222656 2.046875 -38.816406 2.609375 -39.296875 C 3.171875 -39.773438 3.800781 -40.117188 4.5 -40.328125 C 5.207031 -40.546875 5.898438 -40.644531 6.578125 -40.625 C 7.265625 -40.613281 7.960938 -40.46875 8.671875 -40.1875 C 9.585938 -39.8125 10.375 -39.179688 11.03125 -38.296875 C 11.695312 -37.421875 11.992188 -36.335938 11.921875 -35.046875 Z M 11.921875 -17.28125 "/></g></g></g><g fill="#4caf50" fill-opacity="1"><g transform="translate(374.389667, 156.787411)"><g><path d="M 1.59375 -20.234375 C 1.59375 -23.097656 2.128906 -25.773438 3.203125 -28.265625 C 4.285156 -30.765625 5.757812 -32.945312 7.625 -34.8125 C 9.5 -36.6875 11.6875 -38.160156 14.1875 -39.234375 C 16.6875 -40.316406 19.363281 -40.859375 22.21875 -40.859375 C 25.101562 -40.859375 27.796875 -40.316406 30.296875 -39.234375 C 32.804688 -38.160156 34.992188 -36.6875 36.859375 -34.8125 C 38.722656 -32.945312 40.203125 -30.765625 41.296875 -28.265625 C 42.390625 -25.773438 42.9375 -23.097656 42.9375 -20.234375 C 42.9375 -17.347656 42.390625 -14.660156 41.296875 -12.171875 C 40.203125 -9.691406 38.722656 -7.507812 36.859375 -5.625 C 34.992188 -3.75 32.804688 -2.273438 30.296875 -1.203125 C 27.796875 -0.140625 25.101562 0.390625 22.21875 0.390625 C 19.363281 0.390625 16.6875 -0.140625 14.1875 -1.203125 C 11.6875 -2.273438 9.5 -3.75 7.625 -5.625 C 5.757812 -7.507812 4.285156 -9.691406 3.203125 -12.171875 C 2.128906 -14.660156 1.59375 -17.347656 1.59375 -20.234375 Z M 12.90625 -20.0625 C 12.90625 -18.75 13.15625 -17.523438 13.65625 -16.390625 C 14.164062 -15.265625 14.84375 -14.28125 15.6875 -13.4375 C 16.53125 -12.59375 17.515625 -11.929688 18.640625 -11.453125 C 19.773438 -10.984375 20.988281 -10.75 22.28125 -10.75 C 23.59375 -10.75 24.8125 -10.984375 25.9375 -11.453125 C 27.070312 -11.929688 28.066406 -12.59375 28.921875 -13.4375 C 29.785156 -14.28125 30.460938 -15.265625 30.953125 -16.390625 C 31.453125 -17.523438 31.703125 -18.75 31.703125 -20.0625 C 31.703125 -21.351562 31.453125 -22.570312 30.953125 -23.71875 C 30.460938 -24.875 29.785156 -25.875 28.921875 -26.71875 C 28.066406 -27.5625 27.070312 -28.234375 25.9375 -28.734375 C 24.8125 -29.234375 23.59375 -29.484375 22.28125 -29.484375 C 20.988281 -29.484375 19.773438 -29.234375 18.640625 -28.734375 C 17.515625 -28.234375 16.53125 -27.5625 15.6875 -26.71875 C 14.84375 -25.875 14.164062 -24.875 13.65625 -23.71875 C 13.15625 -22.570312 12.90625 -21.351562 12.90625 -20.0625 Z M 12.90625 -20.0625 "/></g></g></g><g fill="#4caf50" fill-opacity="1"><g transform="translate(418.922293, 156.787411)"><g><path d="M 28.796875 -15.625 L 34.828125 -7.96875 C 35.941406 -6.507812 36.289062 -5.128906 35.875 -3.828125 C 35.457031 -2.523438 34.660156 -1.5 33.484375 -0.75 C 32.265625 0.0078125 30.984375 0.289062 29.640625 0.09375 C 28.304688 -0.101562 27.078125 -0.929688 25.953125 -2.390625 L 15.328125 -15.9375 C 14.441406 -17.34375 14.195312 -18.695312 14.59375 -20 C 14.875 -21 15.300781 -21.832031 15.875 -22.5 C 15.914062 -22.539062 15.945312 -22.578125 15.96875 -22.609375 C 16.8125 -23.398438 17.832031 -23.84375 19.03125 -23.9375 L 20.765625 -23.9375 L 23.875 -23.96875 C 25.351562 -23.894531 26.488281 -23.875 27.28125 -23.90625 L 21.921875 -29.75 L 13.546875 -29.75 C 13.328125 -29.6875 13.160156 -29.597656 13.046875 -29.484375 L 13.046875 -28.84375 L 13.015625 -28.84375 L 13.015625 -5.609375 L 13 -5.609375 C 13 -1.867188 11.125 0 7.375 0 C 4.007812 0 2.328125 -1.898438 2.328125 -5.703125 L 2.328125 -34.828125 C 2.328125 -38.585938 3.914062 -40.46875 7.09375 -40.46875 L 23.34375 -40.46875 C 24.769531 -40.46875 26.671875 -39.398438 29.046875 -37.265625 L 33.953125 -31.171875 C 35.648438 -28.910156 36.460938 -26.9375 36.390625 -25.25 C 36.453125 -24.75 36.453125 -24.289062 36.390625 -23.875 L 36.390625 -20.984375 C 36.390625 -19.191406 35.835938 -17.847656 34.734375 -16.953125 C 33.628906 -16.066406 32.335938 -15.625 30.859375 -15.625 Z M 28.796875 -15.625 "/></g></g></g><g fill="#4caf50" fill-opacity="1"><g transform="translate(456.664191, 156.787411)"><g><path d="M 13.359375 -5.328125 C 13.359375 -3.492188 12.804688 -2.109375 11.703125 -1.171875 C 10.597656 -0.242188 9.296875 0.21875 7.796875 0.21875 C 6.265625 0.21875 4.953125 -0.242188 3.859375 -1.171875 C 2.765625 -2.109375 2.21875 -3.492188 2.21875 -5.328125 L 2.21875 -35.109375 C 2.21875 -36.878906 2.765625 -38.238281 3.859375 -39.1875 C 4.953125 -40.144531 6.265625 -40.625 7.796875 -40.625 C 9.296875 -40.625 10.597656 -40.144531 11.703125 -39.1875 C 12.804688 -38.238281 13.359375 -36.878906 13.359375 -35.109375 Z M 13.359375 -5.328125 "/></g></g></g><g fill="#4caf50" fill-opacity="1"><g transform="translate(472.406348, 156.787411)"><g><path d="M 34.15625 -4.75 C 34.15625 -1.582031 32.289062 0 28.5625 0 L 7.65625 0 C 6.738281 0 5.929688 -0.160156 5.234375 -0.484375 C 4.546875 -0.816406 3.972656 -1.238281 3.515625 -1.75 C 3.054688 -2.269531 2.707031 -2.863281 2.46875 -3.53125 C 2.238281 -4.207031 2.125 -4.910156 2.125 -5.640625 C 2.125 -6.328125 2.238281 -7.003906 2.46875 -7.671875 C 2.707031 -8.335938 3.066406 -8.929688 3.546875 -9.453125 C 4.023438 -9.984375 4.617188 -10.40625 5.328125 -10.71875 C 6.035156 -11.039062 6.847656 -11.203125 7.765625 -11.203125 L 22.203125 -11.203125 C 23.710938 -11.203125 24.460938 -11.421875 24.453125 -11.859375 C 24.441406 -12.296875 24.4375 -12.765625 24.4375 -13.265625 C 24.4375 -13.816406 24.441406 -14.320312 24.453125 -14.78125 C 24.460938 -15.238281 23.710938 -15.46875 22.203125 -15.46875 L 7.46875 -15.46875 C 5.570312 -15.46875 4.09375 -15.816406 3.03125 -16.515625 C 1.976562 -17.210938 1.4375 -18.695312 1.40625 -20.96875 C 1.25 -23.601562 1.707031 -26.726562 2.78125 -30.34375 C 3.863281 -33.96875 5.9375 -36.5625 9 -38.125 C 12.070312 -39.6875 15.421875 -40.46875 19.046875 -40.46875 L 27.328125 -40.46875 C 28.285156 -40.46875 29.128906 -40.300781 29.859375 -39.96875 C 30.585938 -39.644531 31.195312 -39.222656 31.6875 -38.703125 C 32.1875 -38.191406 32.5625 -37.597656 32.8125 -36.921875 C 33.070312 -36.253906 33.203125 -35.570312 33.203125 -34.875 C 33.203125 -34.1875 33.117188 -33.59375 32.953125 -33.09375 C 32.796875 -32.601562 32.46875 -32.085938 31.96875 -31.546875 C 31.476562 -31.003906 30.859375 -30.566406 30.109375 -30.234375 C 29.359375 -29.910156 28.507812 -29.75 27.5625 -29.75 L 15.09375 -29.75 C 13.957031 -29.75 13.125 -29.414062 12.59375 -28.75 C 12.070312 -28.082031 11.742188 -27.429688 11.609375 -26.796875 C 11.484375 -26.160156 11.609375 -25.703125 11.984375 -25.421875 C 12.359375 -25.140625 12.925781 -25 13.6875 -25 L 27.859375 -25 C 31.921875 -25 33.992188 -24.007812 34.078125 -22.03125 C 34.160156 -20.0625 34.1875 -14.300781 34.15625 -4.75 Z M 23.09375 -54.296875 C 23.820312 -54.898438 24.550781 -55.203125 25.28125 -55.203125 C 26.101562 -55.203125 26.8125 -54.894531 27.40625 -54.28125 C 28.007812 -53.675781 28.3125 -52.960938 28.3125 -52.140625 C 28.3125 -51.296875 28.015625 -50.570312 27.421875 -49.96875 L 19.5 -41.984375 C 18.8125 -41.285156 18.082031 -40.9375 17.3125 -40.9375 C 16.539062 -40.9375 15.8125 -41.273438 15.125 -41.953125 L 7.125 -49.921875 C 6.488281 -50.535156 6.171875 -51.253906 6.171875 -52.078125 C 6.171875 -52.492188 6.253906 -52.890625 6.421875 -53.265625 C 6.585938 -53.640625 6.816406 -53.957031 7.109375 -54.21875 C 7.398438 -54.476562 7.726562 -54.695312 8.09375 -54.875 C 8.457031 -55.050781 8.847656 -55.140625 9.265625 -55.140625 C 10.097656 -55.140625 10.816406 -54.835938 11.421875 -54.234375 L 17.3125 -48.46875 Z M 23.09375 -54.296875 "/></g></g></g><g fill="#4caf50" fill-opacity="1"><g transform="translate(507.314117, 156.787411)"><g><path d="M 24.328125 -5.328125 C 24.328125 -3.492188 23.769531 -2.109375 22.65625 -1.171875 C 21.539062 -0.242188 20.226562 0.21875 18.71875 0.21875 C 17.21875 0.21875 15.921875 -0.242188 14.828125 -1.171875 C 13.734375 -2.109375 13.1875 -3.492188 13.1875 -5.328125 L 13.1875 -29.1875 L 6.484375 -29.1875 C 4.703125 -29.1875 3.320312 -29.738281 2.34375 -30.84375 C 1.375 -31.957031 0.890625 -33.285156 0.890625 -34.828125 C 0.890625 -36.359375 1.375 -37.679688 2.34375 -38.796875 C 3.320312 -39.910156 4.703125 -40.46875 6.484375 -40.46875 L 30.921875 -40.46875 C 32.703125 -40.46875 34.085938 -39.910156 35.078125 -38.796875 C 36.066406 -37.679688 36.5625 -36.359375 36.5625 -34.828125 C 36.5625 -33.285156 36.066406 -31.957031 35.078125 -30.84375 C 34.085938 -29.738281 32.703125 -29.1875 30.921875 -29.1875 L 24.328125 -29.1875 Z M 24.328125 -5.328125 "/></g></g></g><g fill="#4caf50" fill-opacity="1"><g transform="translate(545.112128, 156.787411)"><g><path d="M 25.421875 -24.78125 L 25.421875 -30.109375 L 18.40625 -30.109375 C 14.925781 -30.109375 13.1875 -28.453125 13.1875 -25.140625 L 13.1875 -24.75 C 13.394531 -24.539062 13.878906 -24.410156 14.640625 -24.359375 L 24.15625 -24.359375 C 24.851562 -24.429688 25.273438 -24.570312 25.421875 -24.78125 Z M 25.390625 -13.78125 C 25.191406 -13.96875 24.648438 -14.078125 23.765625 -14.109375 L 23.765625 -14.140625 L 14.34375 -14.140625 C 13.800781 -14.109375 13.414062 -14.035156 13.1875 -13.921875 L 13.1875 -5.953125 C 13.1875 -5.066406 13.035156 -4.273438 12.734375 -3.578125 C 12.441406 -2.890625 12.039062 -2.316406 11.53125 -1.859375 C 11.03125 -1.398438 10.445312 -1.046875 9.78125 -0.796875 C 9.113281 -0.546875 8.414062 -0.421875 7.6875 -0.421875 C 6.15625 -0.421875 4.832031 -0.898438 3.71875 -1.859375 C 2.601562 -2.828125 2.046875 -4.191406 2.046875 -5.953125 L 2.046875 -22.875 C 2.023438 -34.507812 7.253906 -40.425781 17.734375 -40.625 C 17.960938 -40.644531 18.195312 -40.65625 18.4375 -40.65625 L 30.984375 -40.65625 C 34.628906 -40.632812 36.441406 -38.765625 36.421875 -35.046875 L 36.390625 -5.53125 C 36.390625 -3.769531 35.847656 -2.414062 34.765625 -1.46875 C 33.679688 -0.53125 32.390625 -0.0625 30.890625 -0.0625 C 29.410156 -0.0625 28.117188 -0.535156 27.015625 -1.484375 C 25.910156 -2.441406 25.367188 -3.789062 25.390625 -5.53125 Z M 25.390625 -13.78125 "/></g></g></g><g clip-path="url(#e3547f8568)"><path fill="#f07f26" d="M 375.003906 168.15625 L 400.601562 168.15625 L 404.035156 171.941406 L 395.414062 181.480469 L 391.238281 186.054688 L 375.003906 168.15625 " fill-opacity="1" fill-rule="nonzero"/></g><g clip-path="url(#b6bc3ca679)"><path fill="#4caf50" d="M 397.054688 182.597656 L 410.152344 168.15625 L 427.316406 168.15625 L 414.699219 182.066406 L 405.625 192.070312 L 397.054688 182.597656 " fill-opacity="1" fill-rule="nonzero"/></g></svg>